HyleDeco-Regular.ufo
<glyph name="exclam" format="2">
  <advance width="243"/>
  <unicode hex="0021"/>
  <outline>
    <contour>
      <point x="41" y="11" type="line"/>
      <point x="51" y="61" type="line"/>
      <point x="54" y="70" type="line"/>
      <point x="58" y="74" type="line"/>
      <point x="63" y="78" type="line"/>
      <point x="72" y="80" type="line"/>
      <point x="134" y="80" type="line"/>
      <point x="143" y="77" type="line"/>
      <point x="150" y="69" type="line"/>
      <point x="153" y="60" type="line"/>
      <point x="163" y="6" type="line"/>
      <point x="163" y="-2" type="line"/>
      <point x="161" y="-8" type="line"/>
      <point x="157" y="-14" type="line"/>
      <point x="152" y="-18" type="line"/>
      <point x="143" y="-20" type="line"/>
      <point x="60" y="-20" type="line"/>
      <point x="54" y="-19" type="line"/>
      <point x="47" y="-15" type="line"/>
      <point x="42" y="-8" type="line"/>
      <point x="40" y="0" type="line"/>
    </contour>
    <contour>
      <point x="41" y="653" type="line"/>
      <point x="40" y="659" type="line"/>
      <point x="40" y="704" type="line"/>
      <point x="45" y="713" type="line"/>
      <point x="52" y="718" type="line"/>
      <point x="60" y="720" type="line"/>
      <point x="145" y="720" type="line"/>
      <point x="154" y="717" type="line"/>
      <point x="161" y="709" type="line"/>
      <point x="163" y="699" type="line"/>
      <point x="156" y="399" type="line"/>
      <point x="154" y="372" type="line"/>
      <point x="154" y="335" type="line"/>
      <point x="153" y="329" type="line"/>
      <point x="153" y="292" type="line"/>
      <point x="152" y="286" type="line"/>
      <point x="152" y="268" type="line"/>
      <point x="150" y="262" type="line"/>
      <point x="146" y="256" type="line"/>
      <point x="140" y="251" type="line"/>
      <point x="135" y="249" type="line"/>
      <point x="68" y="249" type="line"/>
      <point x="63" y="251" type="line"/>
      <point x="58" y="255" type="line"/>
      <point x="53" y="260" type="line"/>
      <point x="51" y="266" type="line"/>
      <point x="47" y="436" type="line"/>
      <point x="46" y="443" type="line"/>
    </contour>
  </outline>
</glyph>
<glyph name="quotedblright" format="2">
  <advance width="261"/>
  <unicode hex="0022"/>
  <unicode hex="201D"/>
  <outline>
    <contour>
      <point x="73" y="572" type="line"/>
      <point x="68" y="567" type="line"/>
      <point x="63" y="564" type="line"/>
      <point x="57" y="562" type="line"/>
      <point x="51" y="562" type="line"/>
      <point x="46" y="564" type="line"/>
      <point x="41" y="568" type="line"/>
      <point x="37" y="572" type="line"/>
      <point x="35" y="578" type="line"/>
      <point x="35" y="700" type="line"/>
      <point x="36" y="706" type="line"/>
      <point x="38" y="711" type="line"/>
      <point x="46" y="718" type="line"/>
      <point x="55" y="720" type="line"/>
      <point x="100" y="720" type="line"/>
      <point x="106" y="718" type="line"/>
      <point x="110" y="716" type="line"/>
      <point x="115" y="718" type="line"/>
      <point x="121" y="720" type="line"/>
      <point x="166" y="720" type="line"/>
      <point x="172" y="719" type="line"/>
      <point x="177" y="716" type="line"/>
      <point x="183" y="711" type="line"/>
      <point x="187" y="702" type="line"/>
      <point x="187" y="653" type="line"/>
      <point x="185" y="648" type="line"/>
      <point x="175" y="632" type="line"/>
      <point x="171" y="623" type="line"/>
      <point x="156" y="600" type="line"/>
      <point x="154" y="594" type="line"/>
      <point x="146" y="581" type="line"/>
      <point x="142" y="574" type="line"/>
      <point x="134" y="566" type="line"/>
      <point x="125" y="562" type="line"/>
      <point x="116" y="563" type="line"/>
      <point x="108" y="569" type="line"/>
      <point x="105" y="574" type="line"/>
      <point x="103" y="580" type="line"/>
      <point x="103" y="625" type="line"/>
    </contour>
  </outline>
</glyph>
<glyph name="myst4" format="2">
  <advance width="725"/>
  <unicode hex="0023"/>
  <outline>
    <contour>
      <point x="507" y="0" type="line"/>
      <point x="465" y="0" type="line"/>
      <point x="465" y="193" type="line"/>
      <point x="260" y="193" type="line"/>
      <point x="260" y="0" type="line"/>
      <point x="218" y="0" type="line"/>
      <point x="217" y="192" type="line"/>
      <point x="50" y="193" type="line"/>
      <point x="50" y="236" type="line"/>
      <point x="217" y="237" type="line"/>
      <point x="217" y="386" type="line"/>
      <point x="50" y="387" type="line"/>
      <point x="50" y="430" type="line"/>
      <point x="217" y="431" type="line"/>
      <point x="218" y="614" type="line"/>
      <point x="260" y="614" type="line"/>
      <point x="260" y="430" type="line"/>
      <point x="465" y="430" type="line"/>
      <point x="465" y="614" type="line"/>
      <point x="507" y="614" type="line"/>
      <point x="508" y="431" type="line"/>
      <point x="675" y="430" type="line"/>
      <point x="675" y="387" type="line"/>
      <point x="508" y="386" type="line"/>
      <point x="508" y="237" type="line"/>
      <point x="675" y="236" type="line"/>
      <point x="675" y="193" type="line"/>
      <point x="508" y="192" type="line"/>
    </contour>
    <contour>
      <point x="465" y="237" type="line"/>
      <point x="465" y="239" type="line"/>
      <point x="465" y="242" type="line"/>
      <point x="465" y="244" type="line"/>
      <point x="465" y="247" type="line"/>
      <point x="465" y="250" type="line"/>
      <point x="465" y="252" type="line"/>
      <point x="465" y="255" type="line"/>
      <point x="465" y="257" type="line"/>
      <point x="465" y="260" type="line"/>
      <point x="465" y="262" type="line"/>
      <point x="465" y="265" type="line"/>
      <point x="465" y="268" type="line"/>
      <point x="465" y="270" type="line"/>
      <point x="465" y="273" type="line"/>
      <point x="465" y="275" type="line"/>
      <point x="465" y="278" type="line"/>
      <point x="465" y="280" type="line"/>
      <point x="465" y="283" type="line"/>
      <point x="465" y="285" type="line"/>
      <point x="465" y="288" type="line"/>
      <point x="465" y="291" type="line"/>
      <point x="465" y="293" type="line"/>
      <point x="465" y="296" type="line"/>
      <point x="465" y="298" type="line"/>
      <point x="465" y="301" type="line"/>
      <point x="465" y="303" type="line"/>
      <point x="465" y="306" type="line"/>
      <point x="465" y="309" type="line"/>
      <point x="465" y="311" type="line"/>
      <point x="465" y="314" type="line"/>
      <point x="465" y="316" type="line"/>
      <point x="465" y="319" type="line"/>
      <point x="465" y="321" type="line"/>
      <point x="465" y="324" type="line"/>
      <point x="465" y="326" type="line"/>
      <point x="465" y="329" type="line"/>
      <point x="465" y="332" type="line"/>
      <point x="465" y="334" type="line"/>
      <point x="465" y="337" type="line"/>
      <point x="465" y="339" type="line"/>
      <point x="465" y="342" type="line"/>
      <point x="465" y="344" type="line"/>
      <point x="465" y="347" type="line"/>
      <point x="465" y="350" type="line"/>
      <point x="465" y="352" type="line"/>
      <point x="465" y="355" type="line"/>
      <point x="465" y="357" type="line"/>
      <point x="465" y="360" type="line"/>
      <point x="465" y="362" type="line"/>
      <point x="465" y="365" type="line"/>
      <point x="465" y="368" type="line"/>
      <point x="465" y="370" type="line"/>
      <point x="465" y="373" type="line"/>
      <point x="465" y="375" type="line"/>
      <point x="465" y="378" type="line"/>
      <point x="465" y="380" type="line"/>
      <point x="465" y="383" type="line"/>
      <point x="465" y="385" type="line"/>
      <point x="464" y="387" type="line"/>
      <point x="461" y="387" type="line"/>
      <point x="459" y="387" type="line"/>
      <point x="456" y="387" type="line"/>
      <point x="453" y="387" type="line"/>
      <point x="451" y="387" type="line"/>
      <point x="448" y="387" type="line"/>
      <point x="446" y="387" type="line"/>
      <point x="443" y="387" type="line"/>
      <point x="441" y="387" type="line"/>
      <point x="438" y="387" type="line"/>
      <point x="435" y="387" type="line"/>
      <point x="433" y="387" type="line"/>
      <point x="430" y="387" type="line"/>
      <point x="428" y="387" type="line"/>
      <point x="425" y="387" type="line"/>
      <point x="423" y="387" type="line"/>
      <point x="420" y="387" type="line"/>
      <point x="418" y="387" type="line"/>
      <point x="415" y="387" type="line"/>
      <point x="412" y="387" type="line"/>
      <point x="410" y="387" type="line"/>
      <point x="407" y="387" type="line"/>
      <point x="405" y="387" type="line"/>
      <point x="402" y="387" type="line"/>
      <point x="400" y="387" type="line"/>
      <point x="397" y="387" type="line"/>
      <point x="394" y="387" type="line"/>
      <point x="392" y="387" type="line"/>
      <point x="389" y="387" type="line"/>
      <point x="387" y="387" type="line"/>
      <point x="384" y="387" type="line"/>
      <point x="382" y="387" type="line"/>
      <point x="379" y="387" type="line"/>
      <point x="376" y="387" type="line"/>
      <point x="374" y="387" type="line"/>
      <point x="371" y="387" type="line"/>
      <point x="369" y="387" type="line"/>
      <point x="366" y="387" type="line"/>
      <point x="364" y="387" type="line"/>
      <point x="361" y="387" type="line"/>
      <point x="359" y="387" type="line"/>
      <point x="356" y="387" type="line"/>
      <point x="353" y="387" type="line"/>
      <point x="351" y="387" type="line"/>
      <point x="348" y="387" type="line"/>
      <point x="346" y="387" type="line"/>
      <point x="343" y="387" type="line"/>
      <point x="341" y="387" type="line"/>
      <point x="338" y="387" type="line"/>
      <point x="335" y="387" type="line"/>
      <point x="333" y="387" type="line"/>
      <point x="330" y="387" type="line"/>
      <point x="328" y="387" type="line"/>
      <point x="325" y="387" type="line"/>
      <point x="323" y="387" type="line"/>
      <point x="320" y="387" type="line"/>
      <point x="318" y="387" type="line"/>
      <point x="315" y="387" type="line"/>
      <point x="312" y="387" type="line"/>
      <point x="310" y="387" type="line"/>
      <point x="307" y="387" type="line"/>
      <point x="305" y="387" type="line"/>
      <point x="302" y="387" type="line"/>
      <point x="300" y="387" type="line"/>
      <point x="297" y="387" type="line"/>
      <point x="294" y="387" type="line"/>
      <point x="292" y="387" type="line"/>
      <point x="289" y="387" type="line"/>
      <point x="287" y="387" type="line"/>
      <point x="284" y="387" type="line"/>
      <point x="282" y="387" type="line"/>
      <point x="279" y="387" type="line"/>
      <point x="276" y="387" type="line"/>
      <point x="274" y="387" type="line"/>
      <point x="271" y="387" type="line"/>
      <point x="269" y="387" type="line"/>
      <point x="266" y="387" type="line"/>
      <point x="264" y="387" type="line"/>
      <point x="261" y="387" type="line"/>
      <point x="260" y="385" type="line"/>
      <point x="260" y="383" type="line"/>
      <point x="260" y="380" type="line"/>
      <point x="260" y="378" type="line"/>
      <point x="260" y="375" type="line"/>
      <point x="260" y="373" type="line"/>
      <point x="260" y="370" type="line"/>
      <point x="260" y="368" type="line"/>
      <point x="260" y="365" type="line"/>
      <point x="260" y="362" type="line"/>
      <point x="260" y="360" type="line"/>
      <point x="260" y="357" type="line"/>
      <point x="260" y="355" type="line"/>
      <point x="260" y="352" type="line"/>
      <point x="260" y="350" type="line"/>
      <point x="260" y="347" type="line"/>
      <point x="260" y="344" type="line"/>
      <point x="260" y="342" type="line"/>
      <point x="260" y="339" type="line"/>
      <point x="260" y="337" type="line"/>
      <point x="260" y="334" type="line"/>
      <point x="260" y="332" type="line"/>
      <point x="260" y="329" type="line"/>
      <point x="260" y="326" type="line"/>
      <point x="260" y="324" type="line"/>
      <point x="260" y="321" type="line"/>
      <point x="260" y="319" type="line"/>
      <point x="260" y="316" type="line"/>
      <point x="260" y="314" type="line"/>
      <point x="260" y="311" type="line"/>
      <point x="260" y="309" type="line"/>
      <point x="260" y="306" type="line"/>
      <point x="260" y="303" type="line"/>
      <point x="260" y="301" type="line"/>
      <point x="260" y="298" type="line"/>
      <point x="260" y="296" type="line"/>
      <point x="260" y="293" type="line"/>
      <point x="260" y="291" type="line"/>
      <point x="260" y="288" type="line"/>
      <point x="260" y="285" type="line"/>
      <point x="260" y="283" type="line"/>
      <point x="260" y="280" type="line"/>
      <point x="260" y="278" type="line"/>
      <point x="260" y="275" type="line"/>
      <point x="260" y="273" type="line"/>
      <point x="260" y="270" type="line"/>
      <point x="260" y="268" type="line"/>
      <point x="260" y="265" type="line"/>
      <point x="260" y="262" type="line"/>
      <point x="260" y="260" type="line"/>
      <point x="260" y="257" type="line"/>
      <point x="260" y="255" type="line"/>
      <point x="260" y="252" type="line"/>
      <point x="260" y="250" type="line"/>
      <point x="260" y="247" type="line"/>
      <point x="260" y="244" type="line"/>
      <point x="260" y="242" type="line"/>
      <point x="260" y="239" type="line"/>
      <point x="260" y="237" type="line"/>
      <point x="262" y="236" type="line"/>
      <point x="265" y="236" type="line"/>
      <point x="267" y="236" type="line"/>
      <point x="270" y="236" type="line"/>
      <point x="272" y="236" type="line"/>
      <point x="275" y="236" type="line"/>
      <point x="277" y="236" type="line"/>
      <point x="280" y="236" type="line"/>
      <point x="282" y="236" type="line"/>
      <point x="285" y="236" type="line"/>
      <point x="288" y="236" type="line"/>
      <point x="290" y="236" type="line"/>
      <point x="293" y="236" type="line"/>
      <point x="295" y="236" type="line"/>
      <point x="298" y="236" type="line"/>
      <point x="300" y="236" type="line"/>
      <point x="303" y="236" type="line"/>
      <point x="306" y="236" type="line"/>
      <point x="308" y="236" type="line"/>
      <point x="311" y="236" type="line"/>
      <point x="313" y="236" type="line"/>
      <point x="316" y="236" type="line"/>
      <point x="318" y="236" type="line"/>
      <point x="321" y="236" type="line"/>
      <point x="324" y="236" type="line"/>
      <point x="326" y="236" type="line"/>
      <point x="329" y="236" type="line"/>
      <point x="331" y="236" type="line"/>
      <point x="334" y="236" type="line"/>
      <point x="336" y="236" type="line"/>
      <point x="339" y="236" type="line"/>
      <point x="341" y="236" type="line"/>
      <point x="344" y="236" type="line"/>
      <point x="347" y="236" type="line"/>
      <point x="349" y="236" type="line"/>
      <point x="352" y="236" type="line"/>
      <point x="354" y="236" type="line"/>
      <point x="357" y="236" type="line"/>
      <point x="359" y="236" type="line"/>
      <point x="362" y="236" type="line"/>
      <point x="365" y="236" type="line"/>
      <point x="367" y="236" type="line"/>
      <point x="370" y="236" type="line"/>
      <point x="372" y="236" type="line"/>
      <point x="375" y="236" type="line"/>
      <point x="377" y="236" type="line"/>
      <point x="380" y="236" type="line"/>
      <point x="382" y="236" type="line"/>
      <point x="385" y="236" type="line"/>
      <point x="388" y="236" type="line"/>
      <point x="390" y="236" type="line"/>
      <point x="393" y="236" type="line"/>
      <point x="395" y="236" type="line"/>
      <point x="398" y="236" type="line"/>
      <point x="400" y="236" type="line"/>
      <point x="403" y="236" type="line"/>
      <point x="406" y="236" type="line"/>
      <point x="408" y="236" type="line"/>
      <point x="411" y="236" type="line"/>
      <point x="413" y="236" type="line"/>
      <point x="416" y="236" type="line"/>
      <point x="418" y="236" type="line"/>
      <point x="421" y="236" type="line"/>
      <point x="424" y="236" type="line"/>
      <point x="426" y="236" type="line"/>
      <point x="429" y="236" type="line"/>
      <point x="431" y="236" type="line"/>
      <point x="434" y="236" type="line"/>
      <point x="436" y="236" type="line"/>
      <point x="439" y="236" type="line"/>
      <point x="441" y="236" type="line"/>
      <point x="444" y="236" type="line"/>
      <point x="447" y="236" type="line"/>
      <point x="449" y="236" type="line"/>
      <point x="452" y="236" type="line"/>
      <point x="454" y="236" type="line"/>
      <point x="457" y="236" type="line"/>
      <point x="459" y="236" type="line"/>
      <point x="462" y="236" type="line"/>
      <point x="465" y="236" type="line"/>
    </contour>
  </outline>
</glyph>
<glyph name="myst0" format="2">
  <advance width="451"/>
  <unicode hex="0024"/>
  <outline>
    <contour>
      <point x="239" y="0" type="line"/>
      <point x="196" y="0" type="line"/>
      <point x="195" y="118" type="line"/>
      <point x="72" y="118" type="line"/>
      <point x="72" y="162" type="line"/>
      <point x="285" y="162" type="line"/>
      <point x="305" y="167" type="line"/>
      <point x="315" y="172" type="line"/>
      <point x="326" y="180" type="line"/>
      <point x="338" y="192" type="line"/>
      <point x="346" y="203" type="line"/>
      <point x="350" y="212" type="line"/>
      <point x="356" y="233" type="line"/>
      <point x="356" y="256" type="line"/>
      <point x="350" y="278" type="line"/>
      <point x="346" y="286" type="line"/>
      <point x="338" y="297" type="line"/>
      <point x="326" y="310" type="line"/>
      <point x="315" y="318" type="line"/>
      <point x="297" y="325" type="line"/>
      <point x="285" y="328" type="line"/>
      <point x="174" y="328" type="line"/>
      <point x="173" y="329" type="line"/>
      <point x="162" y="329" type="line"/>
      <point x="141" y="333" type="line"/>
      <point x="127" y="338" type="line"/>
      <point x="113" y="345" type="line"/>
      <point x="104" y="351" type="line"/>
      <point x="89" y="363" type="line"/>
      <point x="75" y="379" type="line"/>
      <point x="67" y="391" type="line"/>
      <point x="60" y="405" type="line"/>
      <point x="55" y="420" type="line"/>
      <point x="50" y="440" type="line"/>
      <point x="50" y="451" type="line"/>
      <point x="50" y="452" type="line"/>
      <point x="51" y="476" type="line"/>
      <point x="55" y="491" type="line"/>
      <point x="60" y="505" type="line"/>
      <point x="73" y="528" type="line"/>
      <point x="89" y="547" type="line"/>
      <point x="111" y="564" type="line"/>
      <point x="131" y="574" type="line"/>
      <point x="141" y="577" type="line"/>
      <point x="162" y="582" type="line"/>
      <point x="196" y="583" type="line"/>
      <point x="196" y="700" type="line"/>
      <point x="239" y="700" type="line"/>
      <point x="239" y="583" type="line"/>
      <point x="344" y="582" type="line"/>
      <point x="344" y="538" type="line"/>
      <point x="165" y="538" type="line"/>
      <point x="144" y="532" type="line"/>
      <point x="128" y="523" type="line"/>
      <point x="118" y="514" type="line"/>
      <point x="109" y="503" type="line"/>
      <point x="100" y="488" type="line"/>
      <point x="94" y="467" type="line"/>
      <point x="94" y="444" type="line"/>
      <point x="99" y="424" type="line"/>
      <point x="107" y="409" type="line"/>
      <point x="118" y="395" type="line"/>
      <point x="135" y="382" type="line"/>
      <point x="153" y="375" type="line"/>
      <point x="165" y="372" type="line"/>
      <point x="276" y="372" type="line"/>
      <point x="277" y="371" type="line"/>
      <point x="288" y="371" type="line"/>
      <point x="309" y="367" type="line"/>
      <point x="324" y="362" type="line"/>
      <point x="335" y="356" type="line"/>
      <point x="355" y="342" type="line"/>
      <point x="372" y="326" type="line"/>
      <point x="382" y="311" type="line"/>
      <point x="390" y="297" type="line"/>
      <point x="396" y="280" type="line"/>
      <point x="400" y="260" type="line"/>
      <point x="400" y="249" type="line"/>
      <point x="401" y="248" type="line"/>
      <point x="399" y="224" type="line"/>
      <point x="396" y="209" type="line"/>
      <point x="391" y="195" type="line"/>
      <point x="385" y="183" type="line"/>
      <point x="374" y="168" type="line"/>
      <point x="354" y="147" type="line"/>
      <point x="337" y="135" type="line"/>
      <point x="324" y="128" type="line"/>
      <point x="309" y="123" type="line"/>
      <point x="288" y="118" type="line"/>
      <point x="239" y="117" type="line"/>
    </contour>
  </outline>
</glyph>
<glyph name="percent" format="2">
  <advance width="548"/>
  <unicode hex="0025"/>
  <outline>
    <contour>
      <point x="413" y="9" type="line"/>
      <point x="407" y="6" type="line"/>
      <point x="370" y="-5" type="line"/>
      <point x="329" y="0" type="line"/>
      <point x="290" y="18" type="line"/>
      <point x="261" y="49" type="line"/>
      <point x="246" y="86" type="line"/>
      <point x="245" y="95" type="line"/>
      <point x="245" y="131" type="line"/>
      <point x="257" y="163" type="line"/>
      <point x="264" y="175" type="line"/>
      <point x="285" y="197" type="line"/>
      <point x="295" y="205" type="line"/>
      <point x="328" y="220" type="line"/>
      <point x="360" y="225" type="line"/>
      <point x="374" y="224" type="line"/>
      <point x="411" y="212" type="line"/>
      <point x="441" y="190" type="line"/>
      <point x="446" y="184" type="line"/>
      <point x="466" y="150" type="line"/>
      <point x="474" y="114" type="line"/>
      <point x="474" y="106" type="line"/>
      <point x="465" y="68" type="line"/>
      <point x="446" y="36" type="line"/>
      <point x="441" y="30" type="line"/>
    </contour>
    <contour>
      <point x="372" y="137" type="line"/>
      <point x="361" y="140" type="line"/>
      <point x="350" y="139" type="line"/>
      <point x="340" y="134" type="line"/>
      <point x="333" y="126" type="line"/>
      <point x="329" y="115" type="line"/>
      <point x="329" y="105" type="line"/>
      <point x="333" y="94" type="line"/>
      <point x="340" y="86" type="line"/>
      <point x="350" y="81" type="line"/>
      <point x="361" y="80" type="line"/>
      <point x="372" y="83" type="line"/>
      <point x="381" y="90" type="line"/>
      <point x="387" y="99" type="line"/>
      <point x="389" y="110" type="line"/>
      <point x="387" y="121" type="line"/>
      <point x="381" y="130" type="line"/>
    </contour>
    <contour>
      <point x="344" y="675" type="line"/>
      <point x="348" y="682" type="line"/>
      <point x="355" y="686" type="line"/>
      <point x="363" y="688" type="line"/>
      <point x="370" y="687" type="line"/>
      <point x="411" y="671" type="line"/>
      <point x="416" y="668" type="line"/>
      <point x="420" y="664" type="line"/>
      <point x="423" y="658" type="line"/>
      <point x="424" y="653" type="line"/>
      <point x="423" y="647" type="line"/>
      <point x="163" y="-55" type="line"/>
      <point x="160" y="-60" type="line"/>
      <point x="154" y="-65" type="line"/>
      <point x="146" y="-68" type="line"/>
      <point x="139" y="-67" type="line"/>
      <point x="96" y="-51" type="line"/>
      <point x="91" y="-48" type="line"/>
      <point x="87" y="-44" type="line"/>
      <point x="84" y="-38" type="line"/>
      <point x="83" y="-33" type="line"/>
      <point x="84" y="-27" type="line"/>
    </contour>
    <contour>
      <point x="164" y="381" type="line"/>
      <point x="156" y="380" type="line"/>
      <point x="119" y="385" type="line"/>
      <point x="80" y="403" type="line"/>
      <point x="51" y="434" type="line"/>
      <point x="35" y="474" type="line"/>
      <point x="35" y="508" type="line"/>
      <point x="36" y="517" type="line"/>
      <point x="51" y="556" type="line"/>
      <point x="74" y="581" type="line"/>
      <point x="84" y="590" type="line"/>
      <point x="112" y="604" type="line"/>
      <point x="124" y="607" type="line"/>
      <point x="156" y="610" type="line"/>
      <point x="162" y="610" type="line"/>
      <point x="194" y="601" type="line"/>
      <point x="207" y="594" type="line"/>
      <point x="234" y="572" type="line"/>
      <point x="254" y="539" type="line"/>
      <point x="257" y="533" type="line"/>
      <point x="264" y="499" type="line"/>
      <point x="264" y="491" type="line"/>
      <point x="258" y="459" type="line"/>
      <point x="255" y="451" type="line"/>
      <point x="235" y="419" type="line"/>
      <point x="231" y="415" type="line"/>
      <point x="200" y="392" type="line"/>
    </contour>
    <contour>
      <point x="162" y="522" type="line"/>
      <point x="151" y="525" type="line"/>
      <point x="140" y="524" type="line"/>
      <point x="130" y="519" type="line"/>
      <point x="123" y="511" type="line"/>
      <point x="119" y="500" type="line"/>
      <point x="119" y="490" type="line"/>
      <point x="123" y="479" type="line"/>
      <point x="130" y="471" type="line"/>
      <point x="140" y="466" type="line"/>
      <point x="151" y="465" type="line"/>
      <point x="162" y="468" type="line"/>
      <point x="171" y="475" type="line"/>
      <point x="177" y="484" type="line"/>
      <point x="179" y="495" type="line"/>
      <point x="177" y="506" type="line"/>
      <point x="171" y="515" type="line"/>
    </contour>
  </outline>
</glyph>
<glyph name="uni0026" format="2">
  <advance width="556"/>
  <unicode hex="0026"/>
  <outline>
    <contour>
      <point x="375" y="118" type="line"/>
      <point x="373" y="101" type="line"/>
      <point x="370" y="85" type="line"/>
      <point x="363" y="69" type="line"/>
      <point x="357" y="56" type="line"/>
      <point x="347" y="43" type="line"/>
      <point x="332" y="28" type="line"/>
      <point x="321" y="20" type="line"/>
      <point x="306" y="12" type="line"/>
      <point x="287" y="4" type="line"/>
      <point x="271" y="1" type="line"/>
      <point x="257" y="0" type="line"/>
      <point x="165" y="0" type="line"/>
      <point x="149" y="1" type="line"/>
      <point x="133" y="4" type="line"/>
      <point x="114" y="12" type="line"/>
      <point x="99" y="20" type="line"/>
      <point x="88" y="28" type="line"/>
      <point x="73" y="43" type="line"/>
      <point x="65" y="54" type="line"/>
      <point x="57" y="69" type="line"/>
      <point x="49" y="88" type="line"/>
      <point x="47" y="101" type="line"/>
      <point x="45" y="118" type="line"/>
      <point x="45" y="220" type="line"/>
      <point x="46" y="236" type="line"/>
      <point x="49" y="252" type="line"/>
      <point x="57" y="271" type="line"/>
      <point x="63" y="284" type="line"/>
      <point x="73" y="297" type="line"/>
      <point x="88" y="312" type="line"/>
      <point x="99" y="320" type="line"/>
      <point x="114" y="328" type="line"/>
      <point x="133" y="336" type="line"/>
      <point x="136" y="336" type="line"/>
      <point x="129" y="341" type="line"/>
      <point x="116" y="354" type="line"/>
      <point x="108" y="365" type="line"/>
      <point x="103" y="375" type="line"/>
      <point x="97" y="391" type="line"/>
      <point x="94" y="405" type="line"/>
      <point x="93" y="416" type="line"/>
      <point x="93" y="490" type="line"/>
      <point x="94" y="501" type="line"/>
      <point x="97" y="515" type="line"/>
      <point x="103" y="531" type="line"/>
      <point x="110" y="543" type="line"/>
      <point x="116" y="552" type="line"/>
      <point x="129" y="565" type="line"/>
      <point x="138" y="571" type="line"/>
      <point x="150" y="578" type="line"/>
      <point x="166" y="584" type="line"/>
      <point x="180" y="587" type="line"/>
      <point x="193" y="588" type="line"/>
      <point x="246" y="587" type="line"/>
      <point x="263" y="583" type="line"/>
      <point x="276" y="578" type="line"/>
      <point x="288" y="571" type="line"/>
      <point x="300" y="563" type="line"/>
      <point x="310" y="552" type="line"/>
      <point x="318" y="541" type="line"/>
      <point x="325" y="528" type="line"/>
      <point x="329" y="515" type="line"/>
      <point x="332" y="501" type="line"/>
      <point x="333" y="488" type="line"/>
      <point x="333" y="416" type="line"/>
      <point x="332" y="402" type="line"/>
      <point x="328" y="388" type="line"/>
      <point x="325" y="378" type="line"/>
      <point x="318" y="365" type="line"/>
      <point x="317" y="365" type="line"/>
      <point x="516" y="19" type="line"/>
      <point x="478" y="-3" type="line"/>
      <point x="375" y="176" type="line"/>
    </contour>
    <contour>
      <point x="330" y="231" type="line"/>
      <point x="328" y="241" type="line"/>
      <point x="324" y="252" type="line"/>
      <point x="319" y="261" type="line"/>
      <point x="312" y="270" type="line"/>
      <point x="305" y="277" type="line"/>
      <point x="296" y="284" type="line"/>
      <point x="287" y="289" type="line"/>
      <point x="276" y="293" type="line"/>
      <point x="266" y="295" type="line"/>
      <point x="254" y="296" type="line"/>
      <point x="166" y="296" type="line"/>
      <point x="154" y="295" type="line"/>
      <point x="144" y="293" type="line"/>
      <point x="133" y="289" type="line"/>
      <point x="124" y="284" type="line"/>
      <point x="115" y="277" type="line"/>
      <point x="108" y="270" type="line"/>
      <point x="101" y="261" type="line"/>
      <point x="96" y="252" type="line"/>
      <point x="92" y="241" type="line"/>
      <point x="90" y="231" type="line"/>
      <point x="89" y="219" type="line"/>
      <point x="89" y="121" type="line"/>
      <point x="90" y="109" type="line"/>
      <point x="92" y="99" type="line"/>
      <point x="96" y="88" type="line"/>
      <point x="101" y="79" type="line"/>
      <point x="108" y="70" type="line"/>
      <point x="115" y="63" type="line"/>
      <point x="124" y="56" type="line"/>
      <point x="133" y="51" type="line"/>
      <point x="144" y="47" type="line"/>
      <point x="154" y="45" type="line"/>
      <point x="166" y="44" type="line"/>
      <point x="254" y="44" type="line"/>
      <point x="266" y="45" type="line"/>
      <point x="276" y="47" type="line"/>
      <point x="287" y="51" type="line"/>
      <point x="296" y="56" type="line"/>
      <point x="305" y="63" type="line"/>
      <point x="312" y="70" type="line"/>
      <point x="319" y="79" type="line"/>
      <point x="324" y="88" type="line"/>
      <point x="328" y="99" type="line"/>
      <point x="330" y="109" type="line"/>
      <point x="331" y="121" type="line"/>
      <point x="331" y="219" type="line"/>
    </contour>
    <contour>
      <point x="280" y="518" type="line"/>
      <point x="270" y="530" type="line"/>
      <point x="256" y="539" type="line"/>
      <point x="241" y="543" type="line"/>
      <point x="194" y="544" type="line"/>
      <point x="177" y="542" type="line"/>
      <point x="163" y="535" type="line"/>
      <point x="156" y="530" type="line"/>
      <point x="146" y="518" type="line"/>
      <point x="139" y="504" type="line"/>
      <point x="138" y="496" type="line"/>
      <point x="138" y="410" type="line"/>
      <point x="142" y="395" type="line"/>
      <point x="146" y="388" type="line"/>
      <point x="156" y="376" type="line"/>
      <point x="163" y="371" type="line"/>
      <point x="170" y="367" type="line"/>
      <point x="185" y="363" type="line"/>
      <point x="241" y="363" type="line"/>
      <point x="256" y="367" type="line"/>
      <point x="263" y="371" type="line"/>
      <point x="270" y="376" type="line"/>
      <point x="280" y="388" type="line"/>
      <point x="287" y="402" type="line"/>
      <point x="289" y="419" type="line"/>
      <point x="289" y="487" type="line"/>
      <point x="287" y="504" type="line"/>
    </contour>
  </outline>
</glyph>
<glyph name="parenleft" format="2">
  <advance width="349"/>
  <unicode hex="0028"/>
  <outline>
    <contour>
      <point x="303" y="-23" type="line"/>
      <point x="219" y="-23" type="line"/>
      <point x="218" y="-22" type="line"/>
      <point x="198" y="-21" type="line"/>
      <point x="183" y="-18" type="line"/>
      <point x="163" y="-12" type="line"/>
      <point x="135" y="0" type="line"/>
      <point x="118" y="12" type="line"/>
      <point x="105" y="22" type="line"/>
      <point x="90" y="37" type="line"/>
      <point x="79" y="50" type="line"/>
      <point x="68" y="68" type="line"/>
      <point x="59" y="85" type="line"/>
      <point x="51" y="109" type="line"/>
      <point x="46" y="131" type="line"/>
      <point x="45" y="150" type="line"/>
      <point x="45" y="151" type="line"/>
      <point x="45" y="549" type="line"/>
      <point x="45" y="550" type="line"/>
      <point x="46" y="569" type="line"/>
      <point x="51" y="591" type="line"/>
      <point x="57" y="611" type="line"/>
      <point x="70" y="637" type="line"/>
      <point x="85" y="657" type="line"/>
      <point x="104" y="677" type="line"/>
      <point x="128" y="695" type="line"/>
      <point x="148" y="706" type="line"/>
      <point x="171" y="715" type="line"/>
      <point x="198" y="721" type="line"/>
      <point x="218" y="722" type="line"/>
      <point x="219" y="723" type="line"/>
      <point x="303" y="723" type="line"/>
      <point x="304" y="721" type="line"/>
      <point x="304" y="679" type="line"/>
      <point x="303" y="678" type="line"/>
      <point x="207" y="678" type="line"/>
      <point x="186" y="674" type="line"/>
      <point x="173" y="670" type="line"/>
      <point x="153" y="659" type="line"/>
      <point x="133" y="645" type="line"/>
      <point x="122" y="634" type="line"/>
      <point x="110" y="619" type="line"/>
      <point x="98" y="594" type="line"/>
      <point x="91" y="571" type="line"/>
      <point x="89" y="559" type="line"/>
      <point x="89" y="140" type="line"/>
      <point x="94" y="115" type="line"/>
      <point x="105" y="90" type="line"/>
      <point x="115" y="75" type="line"/>
      <point x="122" y="66" type="line"/>
      <point x="139" y="50" type="line"/>
      <point x="153" y="41" type="line"/>
      <point x="169" y="32" type="line"/>
      <point x="196" y="24" type="line"/>
      <point x="208" y="22" type="line"/>
      <point x="303" y="22" type="line"/>
      <point x="304" y="21" type="line"/>
      <point x="304" y="-21" type="line"/>
    </contour>
  </outline>
</glyph>
<glyph name="parenright" format="2">
  <advance width="348"/>
  <unicode hex="0029"/>
  <outline>
    <contour>
      <point x="130" y="-23" type="line"/>
      <point x="45" y="-23" type="line"/>
      <point x="45" y="21" type="line"/>
      <point x="141" y="22" type="line"/>
      <point x="163" y="26" type="line"/>
      <point x="177" y="31" type="line"/>
      <point x="189" y="36" type="line"/>
      <point x="205" y="47" type="line"/>
      <point x="213" y="53" type="line"/>
      <point x="228" y="68" type="line"/>
      <point x="244" y="91" type="line"/>
      <point x="252" y="109" type="line"/>
      <point x="257" y="127" type="line"/>
      <point x="260" y="145" type="line"/>
      <point x="260" y="555" type="line"/>
      <point x="259" y="563" type="line"/>
      <point x="252" y="591" type="line"/>
      <point x="239" y="618" type="line"/>
      <point x="228" y="632" type="line"/>
      <point x="213" y="647" type="line"/>
      <point x="205" y="653" type="line"/>
      <point x="193" y="661" type="line"/>
      <point x="177" y="669" type="line"/>
      <point x="163" y="674" type="line"/>
      <point x="147" y="677" type="line"/>
      <point x="141" y="678" type="line"/>
      <point x="45" y="678" type="line"/>
      <point x="45" y="723" type="line"/>
      <point x="130" y="723" type="line"/>
      <point x="130" y="722" type="line"/>
      <point x="151" y="721" type="line"/>
      <point x="175" y="716" type="line"/>
      <point x="190" y="711" type="line"/>
      <point x="219" y="696" type="line"/>
      <point x="242" y="679" type="line"/>
      <point x="261" y="661" type="line"/>
      <point x="274" y="643" type="line"/>
      <point x="282" y="630" type="line"/>
      <point x="292" y="608" type="line"/>
      <point x="299" y="585" type="line"/>
      <point x="303" y="566" type="line"/>
      <point x="304" y="557" type="line"/>
      <point x="304" y="143" type="line"/>
      <point x="302" y="127" type="line"/>
      <point x="298" y="108" type="line"/>
      <point x="289" y="84" type="line"/>
      <point x="274" y="57" type="line"/>
      <point x="261" y="39" type="line"/>
      <point x="236" y="16" type="line"/>
      <point x="215" y="1" type="line"/>
      <point x="190" y="-11" type="line"/>
      <point x="175" y="-16" type="line"/>
      <point x="156" y="-20" type="line"/>
    </contour>
  </outline>
</glyph>
<glyph name="asterisk" format="2">
  <advance width="409"/>
  <unicode hex="002A"/>
  <outline>
    <contour>
      <point x="163" y="440" type="line"/>
      <point x="157" y="441" type="line"/>
      <point x="152" y="443" type="line"/>
      <point x="146" y="449" type="line"/>
      <point x="144" y="454" type="line"/>
      <point x="143" y="460" type="line"/>
      <point x="143" y="512" type="line"/>
      <point x="80" y="481" type="line"/>
      <point x="74" y="480" type="line"/>
      <point x="69" y="481" type="line"/>
      <point x="62" y="485" type="line"/>
      <point x="58" y="489" type="line"/>
      <point x="36" y="533" type="line"/>
      <point x="35" y="541" type="line"/>
      <point x="36" y="546" type="line"/>
      <point x="40" y="553" type="line"/>
      <point x="44" y="557" type="line"/>
      <point x="91" y="580" type="line"/>
      <point x="43" y="604" type="line"/>
      <point x="39" y="608" type="line"/>
      <point x="36" y="614" type="line"/>
      <point x="35" y="623" type="line"/>
      <point x="37" y="629" type="line"/>
      <point x="57" y="669" type="line"/>
      <point x="60" y="674" type="line"/>
      <point x="65" y="677" type="line"/>
      <point x="74" y="680" type="line"/>
      <point x="82" y="679" type="line"/>
      <point x="143" y="648" type="line"/>
      <point x="143" y="702" type="line"/>
      <point x="145" y="709" type="line"/>
      <point x="149" y="714" type="line"/>
      <point x="155" y="718" type="line"/>
      <point x="161" y="720" type="line"/>
      <point x="211" y="720" type="line"/>
      <point x="216" y="718" type="line"/>
      <point x="221" y="714" type="line"/>
      <point x="225" y="709" type="line"/>
      <point x="227" y="704" type="line"/>
      <point x="227" y="648" type="line"/>
      <point x="290" y="679" type="line"/>
      <point x="296" y="680" type="line"/>
      <point x="303" y="678" type="line"/>
      <point x="308" y="675" type="line"/>
      <point x="312" y="671" type="line"/>
      <point x="334" y="627" type="line"/>
      <point x="335" y="619" type="line"/>
      <point x="334" y="614" type="line"/>
      <point x="330" y="607" type="line"/>
      <point x="326" y="603" type="line"/>
      <point x="279" y="580" type="line"/>
      <point x="327" y="556" type="line"/>
      <point x="333" y="548" type="line"/>
      <point x="335" y="543" type="line"/>
      <point x="335" y="537" type="line"/>
      <point x="333" y="531" type="line"/>
      <point x="313" y="491" type="line"/>
      <point x="310" y="486" type="line"/>
      <point x="305" y="483" type="line"/>
      <point x="298" y="480" type="line"/>
      <point x="288" y="481" type="line"/>
      <point x="227" y="512" type="line"/>
      <point x="227" y="458" type="line"/>
      <point x="225" y="452" type="line"/>
      <point x="222" y="447" type="line"/>
      <point x="216" y="442" type="line"/>
      <point x="209" y="440" type="line"/>
    </contour>
  </outline>
</glyph>
<glyph name="plus" format="2">
  <advance width="510"/>
  <unicode hex="002B"/>
  <outline>
    <contour>
      <point x="435" y="311" type="line"/>
      <point x="433" y="303" type="line"/>
      <point x="430" y="298" type="line"/>
      <point x="424" y="293" type="line"/>
      <point x="417" y="291" type="line"/>
      <point x="277" y="291" type="line"/>
      <point x="277" y="153" type="line"/>
      <point x="275" y="145" type="line"/>
      <point x="270" y="138" type="line"/>
      <point x="261" y="133" type="line"/>
      <point x="211" y="133" type="line"/>
      <point x="204" y="135" type="line"/>
      <point x="199" y="139" type="line"/>
      <point x="195" y="145" type="line"/>
      <point x="193" y="151" type="line"/>
      <point x="193" y="291" type="line"/>
      <point x="55" y="291" type="line"/>
      <point x="47" y="293" type="line"/>
      <point x="40" y="298" type="line"/>
      <point x="35" y="307" type="line"/>
      <point x="35" y="357" type="line"/>
      <point x="37" y="363" type="line"/>
      <point x="41" y="369" type="line"/>
      <point x="47" y="373" type="line"/>
      <point x="53" y="375" type="line"/>
      <point x="193" y="375" type="line"/>
      <point x="193" y="513" type="line"/>
      <point x="195" y="521" type="line"/>
      <point x="200" y="528" type="line"/>
      <point x="209" y="533" type="line"/>
      <point x="259" y="533" type="line"/>
      <point x="265" y="531" type="line"/>
      <point x="271" y="527" type="line"/>
      <point x="275" y="522" type="line"/>
      <point x="277" y="515" type="line"/>
      <point x="277" y="375" type="line"/>
      <point x="415" y="375" type="line"/>
      <point x="423" y="373" type="line"/>
      <point x="430" y="368" type="line"/>
      <point x="435" y="359" type="line"/>
    </contour>
  </outline>
</glyph>
<glyph name="hyphen" format="2">
  <advance width="480"/>
  <unicode hex="002D"/>
  <outline>
    <contour>
      <point x="60" y="374" type="line"/>
      <point x="62" y="382" type="line"/>
      <point x="66" y="388" type="line"/>
      <point x="72" y="392" type="line"/>
      <point x="78" y="394" type="line"/>
      <point x="362" y="394" type="line"/>
      <point x="368" y="392" type="line"/>
      <point x="373" y="389" type="line"/>
      <point x="377" y="385" type="line"/>
      <point x="379" y="380" type="line"/>
      <point x="380" y="374" type="line"/>
      <point x="380" y="328" type="line"/>
      <point x="378" y="322" type="line"/>
      <point x="374" y="316" type="line"/>
      <point x="368" y="312" type="line"/>
      <point x="362" y="310" type="line"/>
      <point x="78" y="310" type="line"/>
      <point x="72" y="312" type="line"/>
      <point x="67" y="315" type="line"/>
      <point x="63" y="319" type="line"/>
      <point x="61" y="324" type="line"/>
      <point x="60" y="330" type="line"/>
    </contour>
  </outline>
</glyph>
<glyph name="period" format="2">
  <advance width="183"/>
  <unicode hex="002E"/>
  <outline>
    <contour>
      <point x="113" y="-3" type="line"/>
      <point x="110" y="-3" type="line"/>
      <point x="108" y="-3" type="line"/>
      <point x="105" y="-3" type="line"/>
      <point x="102" y="-3" type="line"/>
      <point x="100" y="-3" type="line"/>
      <point x="97" y="-3" type="line"/>
      <point x="95" y="-3" type="line"/>
      <point x="92" y="-3" type="line"/>
      <point x="90" y="-3" type="line"/>
      <point x="87" y="-3" type="line"/>
      <point x="85" y="-3" type="line"/>
      <point x="82" y="-3" type="line"/>
      <point x="79" y="-3" type="line"/>
      <point x="77" y="-3" type="line"/>
      <point x="74" y="-3" type="line"/>
      <point x="72" y="-3" type="line"/>
      <point x="70" y="-3" type="line"/>
      <point x="70" y="0" type="line"/>
      <point x="70" y="3" type="line"/>
      <point x="70" y="5" type="line"/>
      <point x="70" y="8" type="line"/>
      <point x="70" y="10" type="line"/>
      <point x="70" y="13" type="line"/>
      <point x="70" y="15" type="line"/>
      <point x="70" y="18" type="line"/>
      <point x="70" y="21" type="line"/>
      <point x="70" y="23" type="line"/>
      <point x="70" y="26" type="line"/>
      <point x="70" y="28" type="line"/>
      <point x="70" y="31" type="line"/>
      <point x="70" y="33" type="line"/>
      <point x="70" y="36" type="line"/>
      <point x="70" y="38" type="line"/>
      <point x="70" y="41" type="line"/>
      <point x="73" y="41" type="line"/>
      <point x="75" y="41" type="line"/>
      <point x="78" y="41" type="line"/>
      <point x="80" y="41" type="line"/>
      <point x="83" y="41" type="line"/>
      <point x="85" y="41" type="line"/>
      <point x="88" y="41" type="line"/>
      <point x="91" y="41" type="line"/>
      <point x="93" y="41" type="line"/>
      <point x="96" y="41" type="line"/>
      <point x="98" y="41" type="line"/>
      <point x="101" y="41" type="line"/>
      <point x="103" y="41" type="line"/>
      <point x="106" y="41" type="line"/>
      <point x="108" y="41" type="line"/>
      <point x="111" y="41" type="line"/>
      <point x="113" y="40" type="line"/>
      <point x="113" y="38" type="line"/>
      <point x="113" y="35" type="line"/>
      <point x="113" y="32" type="line"/>
      <point x="113" y="30" type="line"/>
      <point x="113" y="27" type="line"/>
      <point x="113" y="25" type="line"/>
      <point x="113" y="22" type="line"/>
      <point x="113" y="20" type="line"/>
      <point x="113" y="17" type="line"/>
      <point x="113" y="15" type="line"/>
      <point x="113" y="12" type="line"/>
      <point x="113" y="9" type="line"/>
      <point x="113" y="7" type="line"/>
      <point x="113" y="4" type="line"/>
      <point x="113" y="2" type="line"/>
      <point x="113" y="-1" type="line"/>
    </contour>
  </outline>
</glyph>
<glyph name="slash" format="2">
  <advance width="440"/>
  <unicode hex="002F"/>
  <outline>
    <contour>
      <point x="101" y="-8" type="line"/>
      <point x="95" y="-16" type="line"/>
      <point x="86" y="-20" type="line"/>
      <point x="47" y="-19" type="line"/>
      <point x="39" y="-15" type="line"/>
      <point x="33" y="-10" type="line"/>
      <point x="30" y="-1" type="line"/>
      <point x="30" y="35" type="line"/>
      <point x="31" y="41" type="line"/>
      <point x="301" y="708" type="line"/>
      <point x="307" y="715" type="line"/>
      <point x="316" y="720" type="line"/>
      <point x="349" y="720" type="line"/>
      <point x="355" y="719" type="line"/>
      <point x="360" y="717" type="line"/>
      <point x="364" y="713" type="line"/>
      <point x="369" y="704" type="line"/>
      <point x="370" y="658" type="line"/>
      <point x="369" y="651" type="line"/>
      <point x="138" y="79" type="line"/>
      <point x="134" y="72" type="line"/>
      <point x="117" y="28" type="line"/>
    </contour>
  </outline>
</glyph>
<glyph name="zero" format="2">
  <advance width="603"/>
  <unicode hex="0030"/>
  <outline>
    <contour>
      <point x="164" y="-17" type="line"/>
      <point x="142" y="-11" type="line"/>
      <point x="119" y="0" type="line"/>
      <point x="96" y="14" type="line"/>
      <point x="86" y="23" type="line"/>
      <point x="66" y="43" type="line"/>
      <point x="45" y="74" type="line"/>
      <point x="30" y="110" type="line"/>
      <point x="25" y="143" type="line"/>
      <point x="25" y="557" type="line"/>
      <point x="26" y="575" type="line"/>
      <point x="32" y="599" type="line"/>
      <point x="39" y="616" type="line"/>
      <point x="50" y="637" type="line"/>
      <point x="70" y="663" type="line"/>
      <point x="89" y="681" type="line"/>
      <point x="108" y="695" type="line"/>
      <point x="129" y="706" type="line"/>
      <point x="152" y="714" type="line"/>
      <point x="166" y="718" type="line"/>
      <point x="192" y="720" type="line"/>
      <point x="371" y="720" type="line"/>
      <point x="392" y="719" type="line"/>
      <point x="413" y="714" type="line"/>
      <point x="436" y="705" type="line"/>
      <point x="456" y="694" type="line"/>
      <point x="479" y="676" type="line"/>
      <point x="494" y="661" type="line"/>
      <point x="506" y="647" type="line"/>
      <point x="522" y="621" type="line"/>
      <point x="532" y="591" type="line"/>
      <point x="538" y="563" type="line"/>
      <point x="538" y="141" type="line"/>
      <point x="534" y="118" type="line"/>
      <point x="527" y="90" type="line"/>
      <point x="510" y="59" type="line"/>
      <point x="497" y="43" type="line"/>
      <point x="476" y="22" type="line"/>
      <point x="454" y="5" type="line"/>
      <point x="433" y="-6" type="line"/>
      <point x="414" y="-13" type="line"/>
      <point x="377" y="-20" type="line"/>
      <point x="186" y="-20" type="line"/>
    </contour>
    <contour>
      <point x="109" y="551" type="line"/>
      <point x="108" y="544" type="line"/>
      <point x="108" y="157" type="line"/>
      <point x="111" y="136" type="line"/>
      <point x="116" y="122" type="line"/>
      <point x="121" y="109" type="line"/>
      <point x="133" y="95" type="line"/>
      <point x="148" y="81" type="line"/>
      <point x="162" y="72" type="line"/>
      <point x="183" y="66" type="line"/>
      <point x="196" y="64" type="line"/>
      <point x="376" y="65" type="line"/>
      <point x="390" y="68" type="line"/>
      <point x="407" y="75" type="line"/>
      <point x="423" y="87" type="line"/>
      <point x="429" y="93" type="line"/>
      <point x="427" y="105" type="line"/>
      <point x="429" y="115" type="line"/>
      <point x="432" y="126" type="line"/>
      <point x="439" y="136" type="line"/>
      <point x="454" y="150" type="line"/>
      <point x="454" y="548" type="line"/>
      <point x="451" y="570" type="line"/>
      <point x="447" y="580" type="line"/>
      <point x="442" y="591" type="line"/>
      <point x="428" y="609" type="line"/>
      <point x="412" y="622" type="line"/>
      <point x="396" y="629" type="line"/>
      <point x="385" y="634" type="line"/>
      <point x="373" y="636" type="line"/>
      <point x="190" y="636" type="line"/>
      <point x="167" y="630" type="line"/>
      <point x="153" y="623" type="line"/>
      <point x="141" y="615" type="line"/>
      <point x="135" y="608" type="line"/>
      <point x="136" y="595" type="line"/>
      <point x="135" y="586" type="line"/>
      <point x="128" y="570" type="line"/>
      <point x="119" y="559" type="line"/>
    </contour>
  </outline>
</glyph>
<glyph name="one" format="2">
  <advance width="205"/>
  <unicode hex="0031"/>
  <outline>
    <contour>
      <point x="145" y="0" type="line"/>
      <point x="100" y="1" type="line"/>
      <point x="100" y="545" type="line"/>
      <point x="98" y="544" type="line"/>
      <point x="85" y="525" type="line"/>
      <point x="67" y="506" type="line"/>
      <point x="56" y="499" type="line"/>
      <point x="35" y="489" type="line"/>
      <point x="22" y="486" type="line"/>
      <point x="12" y="486" type="line"/>
      <point x="12" y="529" type="line"/>
      <point x="20" y="531" type="line"/>
      <point x="30" y="535" type="line"/>
      <point x="39" y="542" type="line"/>
      <point x="50" y="552" type="line"/>
      <point x="61" y="567" type="line"/>
      <point x="78" y="599" type="line"/>
      <point x="88" y="625" type="line"/>
      <point x="93" y="645" type="line"/>
      <point x="98" y="671" type="line"/>
      <point x="101" y="700" type="line"/>
      <point x="145" y="700" type="line"/>
    </contour>
  </outline>
</glyph>
<glyph name="two" format="2">
  <advance width="334"/>
  <unicode hex="0032"/>
  <outline>
    <contour>
      <point x="321" y="3" type="line"/>
      <point x="12" y="4" type="line"/>
      <point x="12" y="47" type="line"/>
      <point x="20" y="56" type="line"/>
      <point x="71" y="116" type="line"/>
      <point x="133" y="198" type="line"/>
      <point x="177" y="263" type="line"/>
      <point x="211" y="322" type="line"/>
      <point x="234" y="367" type="line"/>
      <point x="251" y="408" type="line"/>
      <point x="265" y="450" type="line"/>
      <point x="274" y="491" type="line"/>
      <point x="277" y="520" type="line"/>
      <point x="276" y="553" type="line"/>
      <point x="272" y="574" type="line"/>
      <point x="262" y="601" type="line"/>
      <point x="249" y="620" type="line"/>
      <point x="231" y="637" type="line"/>
      <point x="212" y="648" type="line"/>
      <point x="187" y="655" type="line"/>
      <point x="165" y="656" type="line"/>
      <point x="149" y="654" type="line"/>
      <point x="127" y="647" type="line"/>
      <point x="106" y="635" type="line"/>
      <point x="97" y="628" type="line"/>
      <point x="83" y="614" type="line"/>
      <point x="73" y="601" type="line"/>
      <point x="65" y="585" type="line"/>
      <point x="57" y="559" type="line"/>
      <point x="55" y="532" type="line"/>
      <point x="12" y="532" type="line"/>
      <point x="12" y="551" type="line"/>
      <point x="17" y="583" type="line"/>
      <point x="24" y="603" type="line"/>
      <point x="39" y="630" type="line"/>
      <point x="52" y="647" type="line"/>
      <point x="75" y="668" type="line"/>
      <point x="94" y="680" type="line"/>
      <point x="109" y="688" type="line"/>
      <point x="126" y="694" type="line"/>
      <point x="155" y="700" type="line"/>
      <point x="187" y="700" type="line"/>
      <point x="205" y="697" type="line"/>
      <point x="225" y="691" type="line"/>
      <point x="238" y="685" type="line"/>
      <point x="259" y="672" type="line"/>
      <point x="269" y="663" type="line"/>
      <point x="288" y="642" type="line"/>
      <point x="300" y="624" type="line"/>
      <point x="309" y="604" type="line"/>
      <point x="316" y="582" type="line"/>
      <point x="320" y="560" type="line"/>
      <point x="321" y="511" type="line"/>
      <point x="314" y="463" type="line"/>
      <point x="302" y="419" type="line"/>
      <point x="282" y="365" type="line"/>
      <point x="251" y="302" type="line"/>
      <point x="216" y="242" type="line"/>
      <point x="173" y="177" type="line"/>
      <point x="122" y="108" type="line"/>
      <point x="72" y="48" type="line"/>
      <point x="321" y="47" type="line"/>
    </contour>
  </outline>
</glyph>
<glyph name="three" format="2">
  <advance width="497"/>
  <unicode hex="0033"/>
  <outline>
    <contour>
      <point x="286" y="0" type="line"/>
      <point x="13" y="0" type="line"/>
      <point x="12" y="1" type="line"/>
      <point x="13" y="44" type="line"/>
      <point x="276" y="43" type="line"/>
      <point x="296" y="45" type="line"/>
      <point x="314" y="49" type="line"/>
      <point x="345" y="61" type="line"/>
      <point x="367" y="74" type="line"/>
      <point x="386" y="89" type="line"/>
      <point x="402" y="106" type="line"/>
      <point x="415" y="124" type="line"/>
      <point x="426" y="143" type="line"/>
      <point x="435" y="167" type="line"/>
      <point x="439" y="182" type="line"/>
      <point x="441" y="206" type="line"/>
      <point x="441" y="224" type="line"/>
      <point x="438" y="253" type="line"/>
      <point x="432" y="273" type="line"/>
      <point x="419" y="300" type="line"/>
      <point x="401" y="327" type="line"/>
      <point x="381" y="347" type="line"/>
      <point x="359" y="362" type="line"/>
      <point x="339" y="373" type="line"/>
      <point x="323" y="379" type="line"/>
      <point x="305" y="384" type="line"/>
      <point x="286" y="387" type="line"/>
      <point x="175" y="387" type="line"/>
      <point x="174" y="388" type="line"/>
      <point x="151" y="388" type="line"/>
      <point x="259" y="655" type="line"/>
      <point x="13" y="656" type="line"/>
      <point x="13" y="700" type="line"/>
      <point x="307" y="700" type="line"/>
      <point x="308" y="656" type="line"/>
      <point x="306" y="655" type="line"/>
      <point x="299" y="640" type="line"/>
      <point x="216" y="432" type="line"/>
      <point x="281" y="431" type="line"/>
      <point x="312" y="428" type="line"/>
      <point x="343" y="419" type="line"/>
      <point x="374" y="405" type="line"/>
      <point x="388" y="396" type="line"/>
      <point x="407" y="383" type="line"/>
      <point x="431" y="360" type="line"/>
      <point x="454" y="329" type="line"/>
      <point x="473" y="291" type="line"/>
      <point x="481" y="260" type="line"/>
      <point x="484" y="243" type="line"/>
      <point x="485" y="198" type="line"/>
      <point x="482" y="175" type="line"/>
      <point x="478" y="155" type="line"/>
      <point x="469" y="131" type="line"/>
      <point x="454" y="102" type="line"/>
      <point x="433" y="73" type="line"/>
      <point x="412" y="52" type="line"/>
      <point x="382" y="31" type="line"/>
      <point x="363" y="20" type="line"/>
      <point x="333" y="8" type="line"/>
      <point x="308" y="2" type="line"/>
    </contour>
  </outline>
</glyph>
<glyph name="four" format="2">
  <advance width="301"/>
  <unicode hex="0034"/>
  <outline>
    <contour>
      <point x="289" y="0" type="line"/>
      <point x="245" y="1" type="line"/>
      <point x="245" y="194" type="line"/>
      <point x="12" y="194" type="line"/>
      <point x="15" y="207" type="line"/>
      <point x="48" y="288" type="line"/>
      <point x="183" y="642" type="line"/>
      <point x="189" y="654" type="line"/>
      <point x="205" y="697" type="line"/>
      <point x="207" y="700" type="line"/>
      <point x="252" y="700" type="line"/>
      <point x="252" y="698" type="line"/>
      <point x="75" y="238" type="line"/>
      <point x="289" y="237" type="line"/>
    </contour>
  </outline>
</glyph>
<glyph name="five" format="2">
  <advance width="537"/>
  <unicode hex="0035"/>
  <outline>
    <contour>
      <point x="237" y="-20" type="line"/>
      <point x="12" y="-20" type="line"/>
      <point x="6" y="-19" type="line"/>
      <point x="-2" y="-14" type="line"/>
      <point x="-6" y="-9" type="line"/>
      <point x="-8" y="-4" type="line"/>
      <point x="-8" y="44" type="line"/>
      <point x="-7" y="50" type="line"/>
      <point x="-5" y="55" type="line"/>
      <point x="-1" y="59" type="line"/>
      <point x="4" y="62" type="line"/>
      <point x="10" y="64" type="line"/>
      <point x="239" y="64" type="line"/>
      <point x="246" y="65" type="line"/>
      <point x="273" y="70" type="line"/>
      <point x="294" y="78" type="line"/>
      <point x="320" y="90" type="line"/>
      <point x="337" y="101" type="line"/>
      <point x="357" y="118" type="line"/>
      <point x="378" y="140" type="line"/>
      <point x="395" y="165" type="line"/>
      <point x="409" y="195" type="line"/>
      <point x="418" y="227" type="line"/>
      <point x="421" y="260" type="line"/>
      <point x="420" y="292" type="line"/>
      <point x="414" y="321" type="line"/>
      <point x="403" y="349" type="line"/>
      <point x="394" y="366" type="line"/>
      <point x="385" y="381" type="line"/>
      <point x="369" y="399" type="line"/>
      <point x="355" y="414" type="line"/>
      <point x="336" y="429" type="line"/>
      <point x="317" y="441" type="line"/>
      <point x="293" y="452" type="line"/>
      <point x="263" y="461" type="line"/>
      <point x="229" y="466" type="line"/>
      <point x="13" y="467" type="line"/>
      <point x="5" y="469" type="line"/>
      <point x="-1" y="473" type="line"/>
      <point x="-5" y="479" type="line"/>
      <point x="-7" y="487" type="line"/>
      <point x="-7" y="700" type="line"/>
      <point x="-6" y="706" type="line"/>
      <point x="-4" y="711" type="line"/>
      <point x="2" y="717" type="line"/>
      <point x="7" y="719" type="line"/>
      <point x="13" y="720" type="line"/>
      <point x="307" y="720" type="line"/>
      <point x="313" y="719" type="line"/>
      <point x="320" y="715" type="line"/>
      <point x="325" y="709" type="line"/>
      <point x="327" y="702" type="line"/>
      <point x="327" y="654" type="line"/>
      <point x="325" y="648" type="line"/>
      <point x="322" y="643" type="line"/>
      <point x="318" y="639" type="line"/>
      <point x="313" y="637" type="line"/>
      <point x="307" y="636" type="line"/>
      <point x="76" y="636" type="line"/>
      <point x="75" y="550" type="line"/>
      <point x="241" y="550" type="line"/>
      <point x="262" y="548" type="line"/>
      <point x="293" y="541" type="line"/>
      <point x="313" y="535" type="line"/>
      <point x="340" y="524" type="line"/>
      <point x="375" y="505" type="line"/>
      <point x="396" y="489" type="line"/>
      <point x="419" y="470" type="line"/>
      <point x="436" y="453" type="line"/>
      <point x="456" y="425" type="line"/>
      <point x="472" y="400" type="line"/>
      <point x="484" y="376" type="line"/>
      <point x="495" y="345" type="line"/>
      <point x="502" y="312" type="line"/>
      <point x="505" y="282" type="line"/>
      <point x="505" y="248" type="line"/>
      <point x="501" y="214" type="line"/>
      <point x="494" y="182" type="line"/>
      <point x="483" y="152" type="line"/>
      <point x="469" y="125" type="line"/>
      <point x="454" y="101" type="line"/>
      <point x="433" y="75" type="line"/>
      <point x="409" y="51" type="line"/>
      <point x="384" y="31" type="line"/>
      <point x="360" y="16" type="line"/>
      <point x="333" y="2" type="line"/>
      <point x="302" y="-9" type="line"/>
      <point x="270" y="-17" type="line"/>
    </contour>
  </outline>
</glyph>
<glyph name="six" format="2">
  <advance width="414"/>
  <unicode hex="0036"/>
  <outline>
    <contour>
      <point x="143" y="367" type="line"/>
      <point x="171" y="370" type="line"/>
      <point x="201" y="370" type="line"/>
      <point x="226" y="368" type="line"/>
      <point x="253" y="360" type="line"/>
      <point x="284" y="345" type="line"/>
      <point x="313" y="325" type="line"/>
      <point x="338" y="300" type="line"/>
      <point x="353" y="278" type="line"/>
      <point x="365" y="255" type="line"/>
      <point x="375" y="229" type="line"/>
      <point x="378" y="215" type="line"/>
      <point x="382" y="190" type="line"/>
      <point x="382" y="164" type="line"/>
      <point x="377" y="130" type="line"/>
      <point x="365" y="96" type="line"/>
      <point x="351" y="70" type="line"/>
      <point x="336" y="49" type="line"/>
      <point x="311" y="24" type="line"/>
      <point x="284" y="6" type="line"/>
      <point x="265" y="-4" type="line"/>
      <point x="244" y="-12" type="line"/>
      <point x="222" y="-17" type="line"/>
      <point x="202" y="-20" type="line"/>
      <point x="161" y="-19" type="line"/>
      <point x="132" y="-13" type="line"/>
      <point x="112" y="-6" type="line"/>
      <point x="94" y="3" type="line"/>
      <point x="73" y="16" type="line"/>
      <point x="56" y="29" type="line"/>
      <point x="38" y="47" type="line"/>
      <point x="24" y="67" type="line"/>
      <point x="15" y="81" type="line"/>
      <point x="6" y="98" type="line"/>
      <point x="-1" y="119" type="line"/>
      <point x="-8" y="153" type="line"/>
      <point x="-8" y="193" type="line"/>
      <point x="-5" y="220" type="line"/>
      <point x="2" y="243" type="line"/>
      <point x="12" y="262" type="line"/>
      <point x="190" y="707" type="line"/>
      <point x="197" y="715" type="line"/>
      <point x="206" y="720" type="line"/>
      <point x="256" y="720" type="line"/>
      <point x="262" y="719" type="line"/>
      <point x="269" y="715" type="line"/>
      <point x="274" y="709" type="line"/>
      <point x="276" y="702" type="line"/>
      <point x="275" y="692" type="line"/>
    </contour>
    <contour>
      <point x="210" y="67" type="line"/>
      <point x="230" y="73" type="line"/>
      <point x="249" y="84" type="line"/>
      <point x="269" y="102" type="line"/>
      <point x="284" y="122" type="line"/>
      <point x="289" y="132" type="line"/>
      <point x="294" y="145" type="line"/>
      <point x="297" y="163" type="line"/>
      <point x="297" y="188" type="line"/>
      <point x="294" y="205" type="line"/>
      <point x="283" y="229" type="line"/>
      <point x="273" y="243" type="line"/>
      <point x="259" y="259" type="line"/>
      <point x="242" y="272" type="line"/>
      <point x="224" y="280" type="line"/>
      <point x="206" y="285" type="line"/>
      <point x="192" y="287" type="line"/>
      <point x="181" y="287" type="line"/>
      <point x="156" y="283" type="line"/>
      <point x="134" y="273" type="line"/>
      <point x="116" y="261" type="line"/>
      <point x="100" y="245" type="line"/>
      <point x="89" y="230" type="line"/>
      <point x="79" y="208" type="line"/>
      <point x="75" y="184" type="line"/>
      <point x="75" y="167" type="line"/>
      <point x="80" y="142" type="line"/>
      <point x="89" y="121" type="line"/>
      <point x="100" y="106" type="line"/>
      <point x="116" y="90" type="line"/>
      <point x="134" y="78" type="line"/>
      <point x="156" y="68" type="line"/>
      <point x="171" y="65" type="line"/>
      <point x="193" y="65" type="line"/>
    </contour>
  </outline>
</glyph>
<glyph name="seven" format="2">
  <advance width="376"/>
  <unicode hex="0037"/>
  <outline>
    <contour>
      <point x="-8" y="3" type="line"/>
      <point x="-5" y="17" type="line"/>
      <point x="6" y="42" type="line"/>
      <point x="18" y="73" type="line"/>
      <point x="30" y="100" type="line"/>
      <point x="32" y="108" type="line"/>
      <point x="36" y="117" type="line"/>
      <point x="38" y="123" type="line"/>
      <point x="44" y="135" type="line"/>
      <point x="45" y="140" type="line"/>
      <point x="49" y="148" type="line"/>
      <point x="55" y="164" type="line"/>
      <point x="67" y="191" type="line"/>
      <point x="75" y="215" type="line"/>
      <point x="81" y="226" type="line"/>
      <point x="92" y="256" type="line"/>
      <point x="97" y="266" type="line"/>
      <point x="98" y="271" type="line"/>
      <point x="104" y="283" type="line"/>
      <point x="112" y="306" type="line"/>
      <point x="124" y="333" type="line"/>
      <point x="126" y="339" type="line"/>
      <point x="128" y="343" type="line"/>
      <point x="129" y="348" type="line"/>
      <point x="134" y="358" type="line"/>
      <point x="142" y="379" type="line"/>
      <point x="147" y="389" type="line"/>
      <point x="149" y="398" type="line"/>
      <point x="154" y="408" type="line"/>
      <point x="155" y="413" type="line"/>
      <point x="160" y="423" type="line"/>
      <point x="172" y="454" type="line"/>
      <point x="178" y="466" type="line"/>
      <point x="179" y="471" type="line"/>
      <point x="184" y="481" type="line"/>
      <point x="188" y="493" type="line"/>
      <point x="190" y="498" type="line"/>
      <point x="192" y="504" type="line"/>
      <point x="198" y="516" type="line"/>
      <point x="199" y="521" type="line"/>
      <point x="204" y="531" type="line"/>
      <point x="209" y="546" type="line"/>
      <point x="221" y="573" type="line"/>
      <point x="229" y="596" type="line"/>
      <point x="240" y="621" type="line"/>
      <point x="246" y="636" type="line"/>
      <point x="31" y="636" type="line"/>
      <point x="26" y="637" type="line"/>
      <point x="20" y="639" type="line"/>
      <point x="15" y="643" type="line"/>
      <point x="11" y="647" type="line"/>
      <point x="9" y="653" type="line"/>
      <point x="9" y="698" type="line"/>
      <point x="11" y="707" type="line"/>
      <point x="14" y="712" type="line"/>
      <point x="19" y="716" type="line"/>
      <point x="24" y="719" type="line"/>
      <point x="30" y="720" type="line"/>
      <point x="324" y="720" type="line"/>
      <point x="333" y="718" type="line"/>
      <point x="341" y="711" type="line"/>
      <point x="344" y="702" type="line"/>
      <point x="344" y="656" type="line"/>
      <point x="343" y="650" type="line"/>
      <point x="339" y="642" type="line"/>
      <point x="338" y="637" type="line"/>
      <point x="334" y="629" type="line"/>
      <point x="332" y="623" type="line"/>
      <point x="327" y="613" type="line"/>
      <point x="326" y="608" type="line"/>
      <point x="316" y="586" type="line"/>
      <point x="315" y="581" type="line"/>
      <point x="310" y="571" type="line"/>
      <point x="301" y="546" type="line"/>
      <point x="296" y="536" type="line"/>
      <point x="295" y="531" type="line"/>
      <point x="290" y="521" type="line"/>
      <point x="285" y="509" type="line"/>
      <point x="284" y="504" type="line"/>
      <point x="267" y="465" type="line"/>
      <point x="264" y="454" type="line"/>
      <point x="259" y="444" type="line"/>
      <point x="252" y="425" type="line"/>
      <point x="247" y="415" type="line"/>
      <point x="246" y="410" type="line"/>
      <point x="236" y="388" type="line"/>
      <point x="234" y="382" type="line"/>
      <point x="230" y="373" type="line"/>
      <point x="221" y="348" type="line"/>
      <point x="216" y="338" type="line"/>
      <point x="215" y="333" type="line"/>
      <point x="210" y="323" type="line"/>
      <point x="205" y="311" type="line"/>
      <point x="204" y="306" type="line"/>
      <point x="188" y="269" type="line"/>
      <point x="184" y="256" type="line"/>
      <point x="179" y="246" type="line"/>
      <point x="161" y="200" type="line"/>
      <point x="156" y="190" type="line"/>
      <point x="150" y="175" type="line"/>
      <point x="148" y="167" type="line"/>
      <point x="143" y="156" type="line"/>
      <point x="141" y="150" type="line"/>
      <point x="136" y="140" type="line"/>
      <point x="135" y="135" type="line"/>
      <point x="130" y="125" type="line"/>
      <point x="118" y="94" type="line"/>
      <point x="113" y="84" type="line"/>
      <point x="104" y="58" type="line"/>
      <point x="99" y="48" type="line"/>
      <point x="88" y="19" type="line"/>
      <point x="82" y="7" type="line"/>
      <point x="81" y="2" type="line"/>
      <point x="76" y="-9" type="line"/>
      <point x="69" y="-17" type="line"/>
      <point x="60" y="-20" type="line"/>
      <point x="14" y="-20" type="line"/>
      <point x="9" y="-19" type="line"/>
      <point x="0" y="-15" type="line"/>
      <point x="-4" y="-10" type="line"/>
      <point x="-6" y="-7" type="line"/>
    </contour>
  </outline>
</glyph>
<glyph name="eight" format="2">
  <advance width="454"/>
  <unicode hex="0038"/>
  <outline>
    <contour>
      <point x="244" y="0" type="line"/>
      <point x="200" y="1" type="line"/>
      <point x="167" y="8" type="line"/>
      <point x="143" y="17" type="line"/>
      <point x="126" y="25" type="line"/>
      <point x="107" y="37" type="line"/>
      <point x="85" y="53" type="line"/>
      <point x="64" y="74" type="line"/>
      <point x="52" y="89" type="line"/>
      <point x="40" y="108" type="line"/>
      <point x="29" y="130" type="line"/>
      <point x="22" y="147" type="line"/>
      <point x="16" y="169" type="line"/>
      <point x="12" y="205" type="line"/>
      <point x="12" y="239" type="line"/>
      <point x="19" y="274" type="line"/>
      <point x="29" y="301" type="line"/>
      <point x="46" y="332" type="line"/>
      <point x="63" y="356" type="line"/>
      <point x="87" y="380" type="line"/>
      <point x="115" y="400" type="line"/>
      <point x="139" y="412" type="line"/>
      <point x="138" y="415" type="line"/>
      <point x="122" y="427" type="line"/>
      <point x="101" y="449" type="line"/>
      <point x="91" y="464" type="line"/>
      <point x="83" y="482" type="line"/>
      <point x="76" y="501" type="line"/>
      <point x="71" y="526" type="line"/>
      <point x="71" y="561" type="line"/>
      <point x="75" y="582" type="line"/>
      <point x="84" y="607" type="line"/>
      <point x="95" y="629" type="line"/>
      <point x="106" y="643" type="line"/>
      <point x="118" y="657" type="line"/>
      <point x="136" y="671" type="line"/>
      <point x="149" y="680" type="line"/>
      <point x="175" y="692" type="line"/>
      <point x="196" y="698" type="line"/>
      <point x="219" y="700" type="line"/>
      <point x="247" y="700" type="line"/>
      <point x="270" y="695" type="line"/>
      <point x="290" y="688" type="line"/>
      <point x="310" y="677" type="line"/>
      <point x="328" y="664" type="line"/>
      <point x="348" y="644" type="line"/>
      <point x="360" y="629" type="line"/>
      <point x="370" y="609" type="line"/>
      <point x="378" y="589" type="line"/>
      <point x="384" y="560" type="line"/>
      <point x="384" y="527" type="line"/>
      <point x="380" y="505" type="line"/>
      <point x="371" y="480" type="line"/>
      <point x="356" y="452" type="line"/>
      <point x="344" y="438" type="line"/>
      <point x="333" y="427" type="line"/>
      <point x="315" y="412" type="line"/>
      <point x="339" y="400" type="line"/>
      <point x="367" y="380" type="line"/>
      <point x="391" y="356" type="line"/>
      <point x="404" y="338" type="line"/>
      <point x="418" y="316" type="line"/>
      <point x="430" y="290" type="line"/>
      <point x="439" y="258" type="line"/>
      <point x="442" y="227" type="line"/>
      <point x="442" y="205" type="line"/>
      <point x="441" y="204" type="line"/>
      <point x="440" y="184" type="line"/>
      <point x="435" y="157" type="line"/>
      <point x="429" y="139" type="line"/>
      <point x="411" y="103" type="line"/>
      <point x="390" y="74" type="line"/>
      <point x="363" y="48" type="line"/>
      <point x="350" y="39" type="line"/>
      <point x="330" y="26" type="line"/>
      <point x="309" y="16" type="line"/>
      <point x="287" y="8" type="line"/>
      <point x="266" y="3" type="line"/>
    </contour>
    <contour>
      <point x="232" y="431" type="line"/>
      <point x="253" y="433" type="line"/>
      <point x="273" y="440" type="line"/>
      <point x="295" y="453" type="line"/>
      <point x="314" y="471" type="line"/>
      <point x="325" y="487" type="line"/>
      <point x="336" y="513" type="line"/>
      <point x="340" y="535" type="line"/>
      <point x="340" y="552" type="line"/>
      <point x="334" y="580" type="line"/>
      <point x="327" y="596" type="line"/>
      <point x="317" y="612" type="line"/>
      <point x="302" y="628" type="line"/>
      <point x="284" y="641" type="line"/>
      <point x="270" y="648" type="line"/>
      <point x="256" y="653" type="line"/>
      <point x="240" y="656" type="line"/>
      <point x="215" y="656" type="line"/>
      <point x="199" y="653" type="line"/>
      <point x="185" y="648" type="line"/>
      <point x="171" y="641" type="line"/>
      <point x="159" y="633" type="line"/>
      <point x="142" y="617" type="line"/>
      <point x="129" y="600" type="line"/>
      <point x="119" y="574" type="line"/>
      <point x="115" y="553" type="line"/>
      <point x="115" y="534" type="line"/>
      <point x="119" y="513" type="line"/>
      <point x="129" y="487" type="line"/>
      <point x="140" y="472" type="line"/>
      <point x="156" y="456" type="line"/>
      <point x="172" y="445" type="line"/>
      <point x="191" y="436" type="line"/>
      <point x="213" y="431" type="line"/>
    </contour>
    <contour>
      <point x="235" y="45" type="line"/>
      <point x="264" y="48" type="line"/>
      <point x="278" y="52" type="line"/>
      <point x="299" y="60" type="line"/>
      <point x="318" y="71" type="line"/>
      <point x="331" y="79" type="line"/>
      <point x="343" y="90" type="line"/>
      <point x="360" y="107" type="line"/>
      <point x="375" y="130" type="line"/>
      <point x="385" y="149" type="line"/>
      <point x="392" y="169" type="line"/>
      <point x="398" y="200" type="line"/>
      <point x="398" y="232" type="line"/>
      <point x="392" y="262" type="line"/>
      <point x="380" y="292" type="line"/>
      <point x="361" y="323" type="line"/>
      <point x="341" y="344" type="line"/>
      <point x="326" y="355" type="line"/>
      <point x="312" y="364" type="line"/>
      <point x="285" y="377" type="line"/>
      <point x="261" y="384" type="line"/>
      <point x="248" y="386" type="line"/>
      <point x="216" y="387" type="line"/>
      <point x="199" y="385" type="line"/>
      <point x="175" y="379" type="line"/>
      <point x="159" y="373" type="line"/>
      <point x="144" y="365" type="line"/>
      <point x="119" y="349" type="line"/>
      <point x="93" y="323" type="line"/>
      <point x="75" y="294" type="line"/>
      <point x="64" y="269" type="line"/>
      <point x="57" y="240" type="line"/>
      <point x="56" y="200" type="line"/>
      <point x="62" y="169" type="line"/>
      <point x="67" y="154" type="line"/>
      <point x="78" y="132" type="line"/>
      <point x="95" y="106" type="line"/>
      <point x="118" y="83" type="line"/>
      <point x="146" y="65" type="line"/>
      <point x="162" y="57" type="line"/>
      <point x="179" y="51" type="line"/>
      <point x="207" y="45" type="line"/>
    </contour>
  </outline>
</glyph>
<glyph name="nine" format="2">
  <advance width="373"/>
  <unicode hex="0039"/>
  <outline>
    <contour>
      <point x="162" y="0" type="line"/>
      <point x="116" y="1" type="line"/>
      <point x="264" y="368" type="line"/>
      <point x="250" y="361" type="line"/>
      <point x="224" y="353" type="line"/>
      <point x="206" y="350" type="line"/>
      <point x="179" y="350" type="line"/>
      <point x="153" y="352" type="line"/>
      <point x="128" y="359" type="line"/>
      <point x="104" y="370" type="line"/>
      <point x="86" y="381" type="line"/>
      <point x="63" y="400" type="line"/>
      <point x="51" y="412" type="line"/>
      <point x="40" y="428" type="line"/>
      <point x="27" y="450" type="line"/>
      <point x="17" y="477" type="line"/>
      <point x="13" y="493" type="line"/>
      <point x="12" y="507" type="line"/>
      <point x="12" y="543" type="line"/>
      <point x="17" y="573" type="line"/>
      <point x="30" y="605" type="line"/>
      <point x="40" y="622" type="line"/>
      <point x="51" y="638" type="line"/>
      <point x="73" y="660" type="line"/>
      <point x="95" y="675" type="line"/>
      <point x="125" y="690" type="line"/>
      <point x="159" y="699" type="line"/>
      <point x="178" y="700" type="line"/>
      <point x="195" y="700" type="line"/>
      <point x="214" y="699" type="line"/>
      <point x="235" y="694" type="line"/>
      <point x="255" y="687" type="line"/>
      <point x="274" y="677" type="line"/>
      <point x="303" y="657" type="line"/>
      <point x="323" y="635" type="line"/>
      <point x="342" y="606" type="line"/>
      <point x="355" y="575" type="line"/>
      <point x="361" y="547" type="line"/>
      <point x="361" y="503" type="line"/>
      <point x="358" y="486" type="line"/>
      <point x="352" y="466" type="line"/>
      <point x="339" y="438" type="line"/>
      <point x="168" y="11" type="line"/>
    </contour>
    <contour>
      <point x="200" y="395" type="line"/>
      <point x="224" y="399" type="line"/>
      <point x="237" y="404" type="line"/>
      <point x="251" y="411" type="line"/>
      <point x="270" y="425" type="line"/>
      <point x="287" y="442" type="line"/>
      <point x="299" y="458" type="line"/>
      <point x="311" y="484" type="line"/>
      <point x="317" y="510" type="line"/>
      <point x="317" y="540" type="line"/>
      <point x="311" y="566" type="line"/>
      <point x="299" y="592" type="line"/>
      <point x="287" y="608" type="line"/>
      <point x="269" y="626" type="line"/>
      <point x="253" y="638" type="line"/>
      <point x="237" y="646" type="line"/>
      <point x="221" y="652" type="line"/>
      <point x="199" y="656" type="line"/>
      <point x="173" y="656" type="line"/>
      <point x="148" y="651" type="line"/>
      <point x="123" y="640" type="line"/>
      <point x="101" y="624" type="line"/>
      <point x="88" y="611" type="line"/>
      <point x="74" y="593" type="line"/>
      <point x="64" y="573" type="line"/>
      <point x="59" y="559" type="line"/>
      <point x="56" y="544" type="line"/>
      <point x="55" y="515" type="line"/>
      <point x="60" y="488" type="line"/>
      <point x="69" y="466" type="line"/>
      <point x="83" y="445" type="line"/>
      <point x="106" y="422" type="line"/>
      <point x="123" y="410" type="line"/>
      <point x="133" y="405" type="line"/>
      <point x="152" y="398" type="line"/>
      <point x="174" y="394" type="line"/>
    </contour>
  </outline>
</glyph>
<glyph name="colon" format="2">
  <advance width="223"/>
  <unicode hex="003A"/>
  <outline>
    <contour>
      <point x="133" y="-3" type="line"/>
      <point x="131" y="-11" type="line"/>
      <point x="128" y="-16" type="line"/>
      <point x="122" y="-21" type="line"/>
      <point x="117" y="-23" type="line"/>
      <point x="68" y="-23" type="line"/>
      <point x="59" y="-20" type="line"/>
      <point x="53" y="-14" type="line"/>
      <point x="50" y="-5" type="line"/>
      <point x="50" y="43" type="line"/>
      <point x="53" y="52" type="line"/>
      <point x="61" y="59" type="line"/>
      <point x="68" y="61" type="line"/>
      <point x="113" y="61" type="line"/>
      <point x="118" y="60" type="line"/>
      <point x="124" y="57" type="line"/>
      <point x="129" y="51" type="line"/>
      <point x="133" y="44" type="line"/>
    </contour>
    <contour>
      <point x="133" y="285" type="line"/>
      <point x="131" y="277" type="line"/>
      <point x="128" y="272" type="line"/>
      <point x="122" y="267" type="line"/>
      <point x="117" y="265" type="line"/>
      <point x="68" y="265" type="line"/>
      <point x="59" y="268" type="line"/>
      <point x="53" y="274" type="line"/>
      <point x="50" y="283" type="line"/>
      <point x="50" y="330" type="line"/>
      <point x="53" y="339" type="line"/>
      <point x="61" y="346" type="line"/>
      <point x="68" y="348" type="line"/>
      <point x="115" y="348" type="line"/>
      <point x="124" y="345" type="line"/>
      <point x="130" y="339" type="line"/>
      <point x="133" y="332" type="line"/>
    </contour>
  </outline>
</glyph>
<glyph name="semicolon" format="2">
  <advance width="183"/>
  <unicode hex="003B"/>
  <outline>
    <contour>
      <point x="113" y="285" type="line"/>
      <point x="110" y="285" type="line"/>
      <point x="108" y="285" type="line"/>
      <point x="105" y="285" type="line"/>
      <point x="102" y="285" type="line"/>
      <point x="100" y="285" type="line"/>
      <point x="97" y="285" type="line"/>
      <point x="95" y="285" type="line"/>
      <point x="92" y="285" type="line"/>
      <point x="90" y="285" type="line"/>
      <point x="87" y="285" type="line"/>
      <point x="85" y="285" type="line"/>
      <point x="82" y="285" type="line"/>
      <point x="79" y="285" type="line"/>
      <point x="77" y="285" type="line"/>
      <point x="74" y="285" type="line"/>
      <point x="72" y="285" type="line"/>
      <point x="70" y="285" type="line"/>
      <point x="70" y="288" type="line"/>
      <point x="70" y="290" type="line"/>
      <point x="70" y="293" type="line"/>
      <point x="70" y="295" type="line"/>
      <point x="70" y="298" type="line"/>
      <point x="70" y="300" type="line"/>
      <point x="70" y="303" type="line"/>
      <point x="70" y="306" type="line"/>
      <point x="70" y="308" type="line"/>
      <point x="70" y="311" type="line"/>
      <point x="70" y="313" type="line"/>
      <point x="70" y="316" type="line"/>
      <point x="70" y="318" type="line"/>
      <point x="70" y="321" type="line"/>
      <point x="70" y="323" type="line"/>
      <point x="70" y="326" type="line"/>
      <point x="70" y="328" type="line"/>
      <point x="73" y="328" type="line"/>
      <point x="75" y="328" type="line"/>
      <point x="78" y="328" type="line"/>
      <point x="80" y="328" type="line"/>
      <point x="83" y="328" type="line"/>
      <point x="85" y="328" type="line"/>
      <point x="88" y="328" type="line"/>
      <point x="91" y="328" type="line"/>
      <point x="93" y="328" type="line"/>
      <point x="96" y="328" type="line"/>
      <point x="98" y="328" type="line"/>
      <point x="101" y="328" type="line"/>
      <point x="103" y="328" type="line"/>
      <point x="106" y="328" type="line"/>
      <point x="108" y="328" type="line"/>
      <point x="111" y="328" type="line"/>
      <point x="113" y="328" type="line"/>
      <point x="113" y="325" type="line"/>
      <point x="113" y="323" type="line"/>
      <point x="113" y="320" type="line"/>
      <point x="113" y="317" type="line"/>
      <point x="113" y="315" type="line"/>
      <point x="113" y="312" type="line"/>
      <point x="113" y="310" type="line"/>
      <point x="113" y="307" type="line"/>
      <point x="113" y="305" type="line"/>
      <point x="113" y="302" type="line"/>
      <point x="113" y="300" type="line"/>
      <point x="113" y="297" type="line"/>
      <point x="113" y="294" type="line"/>
      <point x="113" y="292" type="line"/>
      <point x="113" y="289" type="line"/>
      <point x="113" y="287" type="line"/>
    </contour>
    <contour>
      <point x="70" y="-86" type="line"/>
      <point x="70" y="-84" type="line"/>
      <point x="70" y="-81" type="line"/>
      <point x="70" y="-79" type="line"/>
      <point x="70" y="-76" type="line"/>
      <point x="70" y="-74" type="line"/>
      <point x="70" y="-71" type="line"/>
      <point x="70" y="-68" type="line"/>
      <point x="70" y="-66" type="line"/>
      <point x="70" y="-63" type="line"/>
      <point x="70" y="-61" type="line"/>
      <point x="70" y="-58" type="line"/>
      <point x="70" y="-56" type="line"/>
      <point x="70" y="-53" type="line"/>
      <point x="70" y="-50" type="line"/>
      <point x="70" y="-48" type="line"/>
      <point x="70" y="-45" type="line"/>
      <point x="70" y="-43" type="line"/>
      <point x="70" y="-40" type="line"/>
      <point x="70" y="-38" type="line"/>
      <point x="70" y="-35" type="line"/>
      <point x="70" y="-32" type="line"/>
      <point x="70" y="-30" type="line"/>
      <point x="70" y="-27" type="line"/>
      <point x="70" y="-25" type="line"/>
      <point x="70" y="-22" type="line"/>
      <point x="70" y="-20" type="line"/>
      <point x="70" y="-17" type="line"/>
      <point x="70" y="-15" type="line"/>
      <point x="70" y="-12" type="line"/>
      <point x="70" y="-9" type="line"/>
      <point x="70" y="-7" type="line"/>
      <point x="70" y="-4" type="line"/>
      <point x="70" y="-2" type="line"/>
      <point x="70" y="1" type="line"/>
      <point x="70" y="3" type="line"/>
      <point x="70" y="6" type="line"/>
      <point x="70" y="9" type="line"/>
      <point x="70" y="11" type="line"/>
      <point x="70" y="14" type="line"/>
      <point x="70" y="16" type="line"/>
      <point x="70" y="19" type="line"/>
      <point x="70" y="21" type="line"/>
      <point x="70" y="24" type="line"/>
      <point x="70" y="26" type="line"/>
      <point x="70" y="29" type="line"/>
      <point x="70" y="32" type="line"/>
      <point x="70" y="34" type="line"/>
      <point x="70" y="37" type="line"/>
      <point x="70" y="39" type="line"/>
      <point x="70" y="42" type="line"/>
      <point x="72" y="42" type="line"/>
      <point x="74" y="42" type="line"/>
      <point x="77" y="42" type="line"/>
      <point x="79" y="42" type="line"/>
      <point x="82" y="42" type="line"/>
      <point x="85" y="42" type="line"/>
      <point x="87" y="42" type="line"/>
      <point x="90" y="42" type="line"/>
      <point x="92" y="42" type="line"/>
      <point x="95" y="42" type="line"/>
      <point x="97" y="42" type="line"/>
      <point x="100" y="42" type="line"/>
      <point x="102" y="42" type="line"/>
      <point x="105" y="42" type="line"/>
      <point x="108" y="42" type="line"/>
      <point x="110" y="42" type="line"/>
      <point x="113" y="42" type="line"/>
      <point x="113" y="40" type="line"/>
      <point x="113" y="38" type="line"/>
      <point x="113" y="35" type="line"/>
      <point x="113" y="32" type="line"/>
      <point x="113" y="30" type="line"/>
      <point x="113" y="27" type="line"/>
      <point x="113" y="25" type="line"/>
      <point x="113" y="22" type="line"/>
      <point x="113" y="20" type="line"/>
      <point x="113" y="17" type="line"/>
      <point x="113" y="15" type="line"/>
      <point x="113" y="12" type="line"/>
      <point x="113" y="9" type="line"/>
      <point x="113" y="7" type="line"/>
      <point x="113" y="4" type="line"/>
      <point x="113" y="2" type="line"/>
      <point x="113" y="-1" type="line"/>
      <point x="112" y="-3" type="line"/>
      <point x="111" y="-4" type="line"/>
      <point x="111" y="-6" type="line"/>
      <point x="110" y="-8" type="line"/>
      <point x="109" y="-9" type="line"/>
      <point x="108" y="-11" type="line"/>
      <point x="107" y="-13" type="line"/>
      <point x="106" y="-15" type="line"/>
      <point x="105" y="-16" type="line"/>
      <point x="105" y="-18" type="line"/>
      <point x="104" y="-20" type="line"/>
      <point x="103" y="-21" type="line"/>
      <point x="102" y="-23" type="line"/>
      <point x="101" y="-25" type="line"/>
      <point x="100" y="-26" type="line"/>
      <point x="99" y="-28" type="line"/>
      <point x="99" y="-30" type="line"/>
      <point x="98" y="-32" type="line"/>
      <point x="97" y="-33" type="line"/>
      <point x="96" y="-35" type="line"/>
      <point x="95" y="-37" type="line"/>
      <point x="94" y="-38" type="line"/>
      <point x="94" y="-40" type="line"/>
      <point x="93" y="-42" type="line"/>
      <point x="92" y="-44" type="line"/>
      <point x="91" y="-45" type="line"/>
      <point x="90" y="-47" type="line"/>
      <point x="89" y="-49" type="line"/>
      <point x="88" y="-50" type="line"/>
      <point x="88" y="-52" type="line"/>
      <point x="87" y="-54" type="line"/>
      <point x="86" y="-56" type="line"/>
      <point x="85" y="-57" type="line"/>
      <point x="84" y="-59" type="line"/>
      <point x="83" y="-61" type="line"/>
      <point x="82" y="-62" type="line"/>
      <point x="81" y="-64" type="line"/>
      <point x="80" y="-65" type="line"/>
      <point x="79" y="-67" type="line"/>
      <point x="79" y="-69" type="line"/>
      <point x="78" y="-71" type="line"/>
      <point x="77" y="-72" type="line"/>
      <point x="76" y="-74" type="line"/>
      <point x="75" y="-76" type="line"/>
      <point x="74" y="-77" type="line"/>
      <point x="73" y="-79" type="line"/>
      <point x="73" y="-81" type="line"/>
      <point x="72" y="-82" type="line"/>
      <point x="71" y="-84" type="line"/>
    </contour>
  </outline>
</glyph>
<glyph name="myst5" format="2">
  <advance width="269"/>
  <unicode hex="003C"/>
  <outline>
    <contour>
      <point x="117" y="411" type="line"/>
      <point x="195" y="207" type="line"/>
      <point x="198" y="195" type="line"/>
      <point x="197" y="187" type="line"/>
      <point x="192" y="179" type="line"/>
      <point x="183" y="175" type="line"/>
      <point x="178" y="174" type="line"/>
      <point x="130" y="175" type="line"/>
      <point x="122" y="178" type="line"/>
      <point x="115" y="184" type="line"/>
      <point x="31" y="403" type="line"/>
      <point x="30" y="409" type="line"/>
      <point x="31" y="417" type="line"/>
      <point x="88" y="567" type="line"/>
      <point x="96" y="587" type="line"/>
      <point x="100" y="594" type="line"/>
      <point x="106" y="600" type="line"/>
      <point x="115" y="603" type="line"/>
      <point x="161" y="603" type="line"/>
      <point x="167" y="602" type="line"/>
      <point x="174" y="598" type="line"/>
      <point x="180" y="592" type="line"/>
      <point x="182" y="584" type="line"/>
      <point x="181" y="577" type="line"/>
    </contour>
  </outline>
</glyph>
<glyph name="equal" format="2">
  <advance width="413"/>
  <unicode hex="003D"/>
  <outline>
    <contour>
      <point x="358" y="389" type="line"/>
      <point x="355" y="389" type="line"/>
      <point x="352" y="389" type="line"/>
      <point x="350" y="389" type="line"/>
      <point x="347" y="389" type="line"/>
      <point x="345" y="389" type="line"/>
      <point x="342" y="389" type="line"/>
      <point x="340" y="389" type="line"/>
      <point x="337" y="389" type="line"/>
      <point x="334" y="389" type="line"/>
      <point x="332" y="389" type="line"/>
      <point x="329" y="389" type="line"/>
      <point x="327" y="389" type="line"/>
      <point x="324" y="389" type="line"/>
      <point x="322" y="389" type="line"/>
      <point x="319" y="389" type="line"/>
      <point x="317" y="389" type="line"/>
      <point x="314" y="389" type="line"/>
      <point x="311" y="389" type="line"/>
      <point x="309" y="389" type="line"/>
      <point x="306" y="389" type="line"/>
      <point x="304" y="389" type="line"/>
      <point x="301" y="389" type="line"/>
      <point x="299" y="389" type="line"/>
      <point x="296" y="389" type="line"/>
      <point x="293" y="389" type="line"/>
      <point x="291" y="389" type="line"/>
      <point x="288" y="389" type="line"/>
      <point x="286" y="389" type="line"/>
      <point x="283" y="389" type="line"/>
      <point x="281" y="389" type="line"/>
      <point x="278" y="389" type="line"/>
      <point x="276" y="389" type="line"/>
      <point x="273" y="389" type="line"/>
      <point x="270" y="389" type="line"/>
      <point x="268" y="389" type="line"/>
      <point x="265" y="389" type="line"/>
      <point x="263" y="389" type="line"/>
      <point x="260" y="389" type="line"/>
      <point x="258" y="389" type="line"/>
      <point x="255" y="389" type="line"/>
      <point x="252" y="389" type="line"/>
      <point x="250" y="389" type="line"/>
      <point x="247" y="389" type="line"/>
      <point x="245" y="389" type="line"/>
      <point x="242" y="389" type="line"/>
      <point x="240" y="389" type="line"/>
      <point x="237" y="389" type="line"/>
      <point x="234" y="389" type="line"/>
      <point x="232" y="389" type="line"/>
      <point x="229" y="389" type="line"/>
      <point x="227" y="389" type="line"/>
      <point x="224" y="389" type="line"/>
      <point x="222" y="389" type="line"/>
      <point x="219" y="389" type="line"/>
      <point x="217" y="389" type="line"/>
      <point x="214" y="389" type="line"/>
      <point x="211" y="389" type="line"/>
      <point x="209" y="389" type="line"/>
      <point x="206" y="389" type="line"/>
      <point x="204" y="389" type="line"/>
      <point x="201" y="389" type="line"/>
      <point x="199" y="389" type="line"/>
      <point x="196" y="389" type="line"/>
      <point x="193" y="389" type="line"/>
      <point x="191" y="389" type="line"/>
      <point x="188" y="389" type="line"/>
      <point x="186" y="389" type="line"/>
      <point x="183" y="389" type="line"/>
      <point x="181" y="389" type="line"/>
      <point x="178" y="389" type="line"/>
      <point x="176" y="389" type="line"/>
      <point x="173" y="389" type="line"/>
      <point x="170" y="389" type="line"/>
      <point x="168" y="389" type="line"/>
      <point x="165" y="389" type="line"/>
      <point x="163" y="389" type="line"/>
      <point x="160" y="389" type="line"/>
      <point x="158" y="389" type="line"/>
      <point x="155" y="389" type="line"/>
      <point x="152" y="389" type="line"/>
      <point x="150" y="389" type="line"/>
      <point x="147" y="389" type="line"/>
      <point x="145" y="389" type="line"/>
      <point x="142" y="389" type="line"/>
      <point x="140" y="389" type="line"/>
      <point x="137" y="389" type="line"/>
      <point x="134" y="389" type="line"/>
      <point x="132" y="389" type="line"/>
      <point x="129" y="389" type="line"/>
      <point x="127" y="389" type="line"/>
      <point x="124" y="389" type="line"/>
      <point x="122" y="389" type="line"/>
      <point x="119" y="389" type="line"/>
      <point x="117" y="389" type="line"/>
      <point x="114" y="389" type="line"/>
      <point x="111" y="389" type="line"/>
      <point x="109" y="389" type="line"/>
      <point x="106" y="389" type="line"/>
      <point x="104" y="389" type="line"/>
      <point x="101" y="389" type="line"/>
      <point x="99" y="389" type="line"/>
      <point x="96" y="389" type="line"/>
      <point x="93" y="389" type="line"/>
      <point x="91" y="389" type="line"/>
      <point x="88" y="389" type="line"/>
      <point x="86" y="389" type="line"/>
      <point x="83" y="389" type="line"/>
      <point x="81" y="389" type="line"/>
      <point x="78" y="389" type="line"/>
      <point x="76" y="389" type="line"/>
      <point x="73" y="389" type="line"/>
      <point x="70" y="389" type="line"/>
      <point x="68" y="389" type="line"/>
      <point x="65" y="389" type="line"/>
      <point x="63" y="389" type="line"/>
      <point x="60" y="389" type="line"/>
      <point x="58" y="389" type="line"/>
      <point x="55" y="389" type="line"/>
      <point x="55" y="391" type="line"/>
      <point x="55" y="394" type="line"/>
      <point x="55" y="396" type="line"/>
      <point x="55" y="399" type="line"/>
      <point x="55" y="401" type="line"/>
      <point x="55" y="404" type="line"/>
      <point x="55" y="406" type="line"/>
      <point x="55" y="409" type="line"/>
      <point x="55" y="412" type="line"/>
      <point x="55" y="414" type="line"/>
      <point x="55" y="417" type="line"/>
      <point x="55" y="419" type="line"/>
      <point x="55" y="422" type="line"/>
      <point x="55" y="424" type="line"/>
      <point x="55" y="427" type="line"/>
      <point x="55" y="430" type="line"/>
      <point x="55" y="432" type="line"/>
      <point x="57" y="433" type="line"/>
      <point x="59" y="433" type="line"/>
      <point x="62" y="433" type="line"/>
      <point x="64" y="433" type="line"/>
      <point x="67" y="433" type="line"/>
      <point x="70" y="433" type="line"/>
      <point x="72" y="433" type="line"/>
      <point x="75" y="433" type="line"/>
      <point x="77" y="433" type="line"/>
      <point x="80" y="433" type="line"/>
      <point x="82" y="433" type="line"/>
      <point x="85" y="433" type="line"/>
      <point x="87" y="433" type="line"/>
      <point x="90" y="433" type="line"/>
      <point x="93" y="433" type="line"/>
      <point x="95" y="433" type="line"/>
      <point x="98" y="433" type="line"/>
      <point x="100" y="433" type="line"/>
      <point x="103" y="433" type="line"/>
      <point x="105" y="433" type="line"/>
      <point x="108" y="433" type="line"/>
      <point x="111" y="433" type="line"/>
      <point x="113" y="433" type="line"/>
      <point x="116" y="433" type="line"/>
      <point x="118" y="433" type="line"/>
      <point x="121" y="433" type="line"/>
      <point x="123" y="433" type="line"/>
      <point x="126" y="433" type="line"/>
      <point x="129" y="433" type="line"/>
      <point x="131" y="433" type="line"/>
      <point x="134" y="433" type="line"/>
      <point x="136" y="433" type="line"/>
      <point x="139" y="433" type="line"/>
      <point x="141" y="433" type="line"/>
      <point x="144" y="433" type="line"/>
      <point x="146" y="433" type="line"/>
      <point x="149" y="433" type="line"/>
      <point x="152" y="433" type="line"/>
      <point x="154" y="433" type="line"/>
      <point x="157" y="433" type="line"/>
      <point x="159" y="433" type="line"/>
      <point x="162" y="433" type="line"/>
      <point x="164" y="433" type="line"/>
      <point x="167" y="433" type="line"/>
      <point x="170" y="433" type="line"/>
      <point x="172" y="433" type="line"/>
      <point x="175" y="433" type="line"/>
      <point x="177" y="433" type="line"/>
      <point x="180" y="433" type="line"/>
      <point x="182" y="433" type="line"/>
      <point x="185" y="433" type="line"/>
      <point x="187" y="433" type="line"/>
      <point x="190" y="433" type="line"/>
      <point x="193" y="433" type="line"/>
      <point x="195" y="433" type="line"/>
      <point x="198" y="433" type="line"/>
      <point x="200" y="433" type="line"/>
      <point x="203" y="433" type="line"/>
      <point x="205" y="433" type="line"/>
      <point x="208" y="433" type="line"/>
      <point x="211" y="433" type="line"/>
      <point x="213" y="433" type="line"/>
      <point x="216" y="433" type="line"/>
      <point x="218" y="433" type="line"/>
      <point x="221" y="433" type="line"/>
      <point x="223" y="433" type="line"/>
      <point x="226" y="433" type="line"/>
      <point x="229" y="433" type="line"/>
      <point x="231" y="433" type="line"/>
      <point x="234" y="433" type="line"/>
      <point x="236" y="433" type="line"/>
      <point x="239" y="433" type="line"/>
      <point x="241" y="433" type="line"/>
      <point x="244" y="433" type="line"/>
      <point x="246" y="433" type="line"/>
      <point x="249" y="433" type="line"/>
      <point x="252" y="433" type="line"/>
      <point x="254" y="433" type="line"/>
      <point x="257" y="433" type="line"/>
      <point x="259" y="433" type="line"/>
      <point x="262" y="433" type="line"/>
      <point x="264" y="433" type="line"/>
      <point x="267" y="433" type="line"/>
      <point x="270" y="433" type="line"/>
      <point x="272" y="433" type="line"/>
      <point x="275" y="433" type="line"/>
      <point x="277" y="433" type="line"/>
      <point x="280" y="433" type="line"/>
      <point x="282" y="433" type="line"/>
      <point x="285" y="433" type="line"/>
      <point x="287" y="433" type="line"/>
      <point x="290" y="433" type="line"/>
      <point x="293" y="433" type="line"/>
      <point x="295" y="433" type="line"/>
      <point x="298" y="433" type="line"/>
      <point x="300" y="433" type="line"/>
      <point x="303" y="433" type="line"/>
      <point x="305" y="433" type="line"/>
      <point x="308" y="433" type="line"/>
      <point x="311" y="433" type="line"/>
      <point x="313" y="433" type="line"/>
      <point x="316" y="433" type="line"/>
      <point x="318" y="433" type="line"/>
      <point x="321" y="433" type="line"/>
      <point x="323" y="433" type="line"/>
      <point x="326" y="433" type="line"/>
      <point x="329" y="433" type="line"/>
      <point x="331" y="433" type="line"/>
      <point x="334" y="433" type="line"/>
      <point x="336" y="433" type="line"/>
      <point x="339" y="433" type="line"/>
      <point x="341" y="433" type="line"/>
      <point x="344" y="433" type="line"/>
      <point x="346" y="433" type="line"/>
      <point x="349" y="433" type="line"/>
      <point x="352" y="433" type="line"/>
      <point x="354" y="433" type="line"/>
      <point x="357" y="433" type="line"/>
      <point x="358" y="431" type="line"/>
      <point x="358" y="429" type="line"/>
      <point x="358" y="426" type="line"/>
      <point x="358" y="424" type="line"/>
      <point x="358" y="421" type="line"/>
      <point x="358" y="418" type="line"/>
      <point x="358" y="416" type="line"/>
      <point x="358" y="413" type="line"/>
      <point x="358" y="411" type="line"/>
      <point x="358" y="408" type="line"/>
      <point x="358" y="406" type="line"/>
      <point x="358" y="403" type="line"/>
      <point x="358" y="401" type="line"/>
      <point x="358" y="398" type="line"/>
      <point x="358" y="395" type="line"/>
      <point x="358" y="393" type="line"/>
      <point x="358" y="390" type="line"/>
    </contour>
    <contour>
      <point x="358" y="194" type="line"/>
      <point x="355" y="194" type="line"/>
      <point x="352" y="194" type="line"/>
      <point x="350" y="194" type="line"/>
      <point x="347" y="194" type="line"/>
      <point x="345" y="194" type="line"/>
      <point x="342" y="194" type="line"/>
      <point x="340" y="194" type="line"/>
      <point x="337" y="194" type="line"/>
      <point x="334" y="194" type="line"/>
      <point x="332" y="194" type="line"/>
      <point x="329" y="194" type="line"/>
      <point x="327" y="194" type="line"/>
      <point x="324" y="194" type="line"/>
      <point x="322" y="194" type="line"/>
      <point x="319" y="194" type="line"/>
      <point x="317" y="194" type="line"/>
      <point x="314" y="194" type="line"/>
      <point x="311" y="194" type="line"/>
      <point x="309" y="194" type="line"/>
      <point x="306" y="194" type="line"/>
      <point x="304" y="194" type="line"/>
      <point x="301" y="194" type="line"/>
      <point x="299" y="194" type="line"/>
      <point x="296" y="194" type="line"/>
      <point x="293" y="194" type="line"/>
      <point x="291" y="194" type="line"/>
      <point x="288" y="194" type="line"/>
      <point x="286" y="194" type="line"/>
      <point x="283" y="194" type="line"/>
      <point x="281" y="194" type="line"/>
      <point x="278" y="194" type="line"/>
      <point x="276" y="194" type="line"/>
      <point x="273" y="194" type="line"/>
      <point x="270" y="194" type="line"/>
      <point x="268" y="194" type="line"/>
      <point x="265" y="194" type="line"/>
      <point x="263" y="194" type="line"/>
      <point x="260" y="194" type="line"/>
      <point x="258" y="194" type="line"/>
      <point x="255" y="194" type="line"/>
      <point x="252" y="194" type="line"/>
      <point x="250" y="194" type="line"/>
      <point x="247" y="194" type="line"/>
      <point x="245" y="194" type="line"/>
      <point x="242" y="194" type="line"/>
      <point x="240" y="194" type="line"/>
      <point x="237" y="194" type="line"/>
      <point x="234" y="194" type="line"/>
      <point x="232" y="194" type="line"/>
      <point x="229" y="194" type="line"/>
      <point x="227" y="194" type="line"/>
      <point x="224" y="194" type="line"/>
      <point x="222" y="194" type="line"/>
      <point x="219" y="194" type="line"/>
      <point x="217" y="194" type="line"/>
      <point x="214" y="194" type="line"/>
      <point x="211" y="194" type="line"/>
      <point x="209" y="194" type="line"/>
      <point x="206" y="194" type="line"/>
      <point x="204" y="194" type="line"/>
      <point x="201" y="194" type="line"/>
      <point x="199" y="194" type="line"/>
      <point x="196" y="194" type="line"/>
      <point x="193" y="194" type="line"/>
      <point x="191" y="194" type="line"/>
      <point x="188" y="194" type="line"/>
      <point x="186" y="194" type="line"/>
      <point x="183" y="194" type="line"/>
      <point x="181" y="194" type="line"/>
      <point x="178" y="194" type="line"/>
      <point x="176" y="194" type="line"/>
      <point x="173" y="194" type="line"/>
      <point x="170" y="194" type="line"/>
      <point x="168" y="194" type="line"/>
      <point x="165" y="194" type="line"/>
      <point x="163" y="194" type="line"/>
      <point x="160" y="194" type="line"/>
      <point x="158" y="194" type="line"/>
      <point x="155" y="194" type="line"/>
      <point x="152" y="194" type="line"/>
      <point x="150" y="194" type="line"/>
      <point x="147" y="194" type="line"/>
      <point x="145" y="194" type="line"/>
      <point x="142" y="194" type="line"/>
      <point x="140" y="194" type="line"/>
      <point x="137" y="194" type="line"/>
      <point x="134" y="194" type="line"/>
      <point x="132" y="194" type="line"/>
      <point x="129" y="194" type="line"/>
      <point x="127" y="194" type="line"/>
      <point x="124" y="194" type="line"/>
      <point x="122" y="194" type="line"/>
      <point x="119" y="194" type="line"/>
      <point x="117" y="194" type="line"/>
      <point x="114" y="194" type="line"/>
      <point x="111" y="194" type="line"/>
      <point x="109" y="194" type="line"/>
      <point x="106" y="194" type="line"/>
      <point x="104" y="194" type="line"/>
      <point x="101" y="194" type="line"/>
      <point x="99" y="194" type="line"/>
      <point x="96" y="194" type="line"/>
      <point x="93" y="194" type="line"/>
      <point x="91" y="194" type="line"/>
      <point x="88" y="194" type="line"/>
      <point x="86" y="194" type="line"/>
      <point x="83" y="194" type="line"/>
      <point x="81" y="194" type="line"/>
      <point x="78" y="194" type="line"/>
      <point x="76" y="194" type="line"/>
      <point x="73" y="194" type="line"/>
      <point x="70" y="194" type="line"/>
      <point x="68" y="194" type="line"/>
      <point x="65" y="194" type="line"/>
      <point x="63" y="194" type="line"/>
      <point x="60" y="194" type="line"/>
      <point x="58" y="194" type="line"/>
      <point x="55" y="194" type="line"/>
      <point x="55" y="196" type="line"/>
      <point x="55" y="199" type="line"/>
      <point x="55" y="201" type="line"/>
      <point x="55" y="204" type="line"/>
      <point x="55" y="206" type="line"/>
      <point x="55" y="209" type="line"/>
      <point x="55" y="212" type="line"/>
      <point x="55" y="214" type="line"/>
      <point x="55" y="217" type="line"/>
      <point x="55" y="219" type="line"/>
      <point x="55" y="222" type="line"/>
      <point x="55" y="224" type="line"/>
      <point x="55" y="227" type="line"/>
      <point x="55" y="230" type="line"/>
      <point x="55" y="232" type="line"/>
      <point x="55" y="235" type="line"/>
      <point x="55" y="237" type="line"/>
      <point x="57" y="238" type="line"/>
      <point x="59" y="238" type="line"/>
      <point x="62" y="238" type="line"/>
      <point x="64" y="238" type="line"/>
      <point x="67" y="238" type="line"/>
      <point x="70" y="238" type="line"/>
      <point x="72" y="238" type="line"/>
      <point x="75" y="238" type="line"/>
      <point x="77" y="238" type="line"/>
      <point x="80" y="238" type="line"/>
      <point x="82" y="238" type="line"/>
      <point x="85" y="238" type="line"/>
      <point x="87" y="238" type="line"/>
      <point x="90" y="238" type="line"/>
      <point x="93" y="238" type="line"/>
      <point x="95" y="238" type="line"/>
      <point x="98" y="238" type="line"/>
      <point x="100" y="238" type="line"/>
      <point x="103" y="238" type="line"/>
      <point x="105" y="238" type="line"/>
      <point x="108" y="238" type="line"/>
      <point x="111" y="238" type="line"/>
      <point x="113" y="238" type="line"/>
      <point x="116" y="238" type="line"/>
      <point x="118" y="238" type="line"/>
      <point x="121" y="238" type="line"/>
      <point x="123" y="238" type="line"/>
      <point x="126" y="238" type="line"/>
      <point x="129" y="238" type="line"/>
      <point x="131" y="238" type="line"/>
      <point x="134" y="238" type="line"/>
      <point x="136" y="238" type="line"/>
      <point x="139" y="238" type="line"/>
      <point x="141" y="238" type="line"/>
      <point x="144" y="238" type="line"/>
      <point x="146" y="238" type="line"/>
      <point x="149" y="238" type="line"/>
      <point x="152" y="238" type="line"/>
      <point x="154" y="238" type="line"/>
      <point x="157" y="238" type="line"/>
      <point x="159" y="238" type="line"/>
      <point x="162" y="238" type="line"/>
      <point x="164" y="238" type="line"/>
      <point x="167" y="238" type="line"/>
      <point x="170" y="238" type="line"/>
      <point x="172" y="238" type="line"/>
      <point x="175" y="238" type="line"/>
      <point x="177" y="238" type="line"/>
      <point x="180" y="238" type="line"/>
      <point x="182" y="238" type="line"/>
      <point x="185" y="238" type="line"/>
      <point x="187" y="238" type="line"/>
      <point x="190" y="238" type="line"/>
      <point x="193" y="238" type="line"/>
      <point x="195" y="238" type="line"/>
      <point x="198" y="238" type="line"/>
      <point x="200" y="238" type="line"/>
      <point x="203" y="238" type="line"/>
      <point x="205" y="238" type="line"/>
      <point x="208" y="238" type="line"/>
      <point x="211" y="238" type="line"/>
      <point x="213" y="238" type="line"/>
      <point x="216" y="238" type="line"/>
      <point x="218" y="238" type="line"/>
      <point x="221" y="238" type="line"/>
      <point x="223" y="238" type="line"/>
      <point x="226" y="238" type="line"/>
      <point x="229" y="238" type="line"/>
      <point x="231" y="238" type="line"/>
      <point x="234" y="238" type="line"/>
      <point x="236" y="238" type="line"/>
      <point x="239" y="238" type="line"/>
      <point x="241" y="238" type="line"/>
      <point x="244" y="238" type="line"/>
      <point x="246" y="238" type="line"/>
      <point x="249" y="238" type="line"/>
      <point x="252" y="238" type="line"/>
      <point x="254" y="238" type="line"/>
      <point x="257" y="238" type="line"/>
      <point x="259" y="238" type="line"/>
      <point x="262" y="238" type="line"/>
      <point x="264" y="238" type="line"/>
      <point x="267" y="238" type="line"/>
      <point x="270" y="238" type="line"/>
      <point x="272" y="238" type="line"/>
      <point x="275" y="238" type="line"/>
      <point x="277" y="238" type="line"/>
      <point x="280" y="238" type="line"/>
      <point x="282" y="238" type="line"/>
      <point x="285" y="238" type="line"/>
      <point x="287" y="238" type="line"/>
      <point x="290" y="238" type="line"/>
      <point x="293" y="238" type="line"/>
      <point x="295" y="238" type="line"/>
      <point x="298" y="238" type="line"/>
      <point x="300" y="238" type="line"/>
      <point x="303" y="238" type="line"/>
      <point x="305" y="238" type="line"/>
      <point x="308" y="238" type="line"/>
      <point x="311" y="238" type="line"/>
      <point x="313" y="238" type="line"/>
      <point x="316" y="238" type="line"/>
      <point x="318" y="238" type="line"/>
      <point x="321" y="238" type="line"/>
      <point x="323" y="238" type="line"/>
      <point x="326" y="238" type="line"/>
      <point x="329" y="238" type="line"/>
      <point x="331" y="238" type="line"/>
      <point x="334" y="238" type="line"/>
      <point x="336" y="238" type="line"/>
      <point x="339" y="238" type="line"/>
      <point x="341" y="238" type="line"/>
      <point x="344" y="238" type="line"/>
      <point x="346" y="238" type="line"/>
      <point x="349" y="238" type="line"/>
      <point x="352" y="238" type="line"/>
      <point x="354" y="238" type="line"/>
      <point x="357" y="238" type="line"/>
      <point x="358" y="236" type="line"/>
      <point x="358" y="234" type="line"/>
      <point x="358" y="231" type="line"/>
      <point x="358" y="229" type="line"/>
      <point x="358" y="226" type="line"/>
      <point x="358" y="224" type="line"/>
      <point x="358" y="221" type="line"/>
      <point x="358" y="218" type="line"/>
      <point x="358" y="216" type="line"/>
      <point x="358" y="213" type="line"/>
      <point x="358" y="211" type="line"/>
      <point x="358" y="208" type="line"/>
      <point x="358" y="206" type="line"/>
      <point x="358" y="203" type="line"/>
      <point x="358" y="201" type="line"/>
      <point x="358" y="198" type="line"/>
      <point x="358" y="195" type="line"/>
    </contour>
  </outline>
</glyph>
<glyph name="myst6" format="2">
  <advance width="229"/>
  <unicode hex="003E"/>
  <outline>
    <contour>
      <point x="95" y="194" type="line"/>
      <point x="93" y="194" type="line"/>
      <point x="90" y="194" type="line"/>
      <point x="88" y="194" type="line"/>
      <point x="85" y="194" type="line"/>
      <point x="82" y="194" type="line"/>
      <point x="80" y="194" type="line"/>
      <point x="77" y="194" type="line"/>
      <point x="75" y="194" type="line"/>
      <point x="72" y="194" type="line"/>
      <point x="70" y="194" type="line"/>
      <point x="67" y="194" type="line"/>
      <point x="65" y="194" type="line"/>
      <point x="62" y="194" type="line"/>
      <point x="59" y="194" type="line"/>
      <point x="57" y="194" type="line"/>
      <point x="54" y="194" type="line"/>
      <point x="52" y="194" type="line"/>
      <point x="50" y="195" type="line"/>
      <point x="50" y="196" type="line"/>
      <point x="51" y="198" type="line"/>
      <point x="52" y="200" type="line"/>
      <point x="52" y="202" type="line"/>
      <point x="53" y="204" type="line"/>
      <point x="54" y="206" type="line"/>
      <point x="55" y="207" type="line"/>
      <point x="55" y="210" type="line"/>
      <point x="56" y="211" type="line"/>
      <point x="56" y="213" type="line"/>
      <point x="57" y="215" type="line"/>
      <point x="58" y="217" type="line"/>
      <point x="59" y="219" type="line"/>
      <point x="60" y="220" type="line"/>
      <point x="60" y="222" type="line"/>
      <point x="61" y="225" type="line"/>
      <point x="62" y="226" type="line"/>
      <point x="62" y="228" type="line"/>
      <point x="63" y="230" type="line"/>
      <point x="64" y="231" type="line"/>
      <point x="65" y="233" type="line"/>
      <point x="65" y="236" type="line"/>
      <point x="66" y="237" type="line"/>
      <point x="67" y="239" type="line"/>
      <point x="68" y="241" type="line"/>
      <point x="68" y="242" type="line"/>
      <point x="69" y="245" type="line"/>
      <point x="69" y="247" type="line"/>
      <point x="70" y="248" type="line"/>
      <point x="71" y="250" type="line"/>
      <point x="72" y="252" type="line"/>
      <point x="73" y="254" type="line"/>
      <point x="73" y="256" type="line"/>
      <point x="74" y="258" type="line"/>
      <point x="74" y="260" type="line"/>
      <point x="75" y="261" type="line"/>
      <point x="76" y="263" type="line"/>
      <point x="77" y="265" type="line"/>
      <point x="77" y="267" type="line"/>
      <point x="78" y="269" type="line"/>
      <point x="79" y="271" type="line"/>
      <point x="79" y="272" type="line"/>
      <point x="80" y="274" type="line"/>
      <point x="81" y="276" type="line"/>
      <point x="82" y="278" type="line"/>
      <point x="82" y="280" type="line"/>
      <point x="83" y="282" type="line"/>
      <point x="84" y="283" type="line"/>
      <point x="85" y="285" type="line"/>
      <point x="85" y="287" type="line"/>
      <point x="86" y="289" type="line"/>
      <point x="87" y="291" type="line"/>
      <point x="87" y="293" type="line"/>
      <point x="88" y="295" type="line"/>
      <point x="89" y="296" type="line"/>
      <point x="90" y="298" type="line"/>
      <point x="90" y="300" type="line"/>
      <point x="91" y="302" type="line"/>
      <point x="91" y="304" type="line"/>
      <point x="92" y="306" type="line"/>
      <point x="93" y="307" type="line"/>
      <point x="94" y="309" type="line"/>
      <point x="94" y="311" type="line"/>
      <point x="95" y="313" type="line"/>
      <point x="96" y="315" type="line"/>
      <point x="97" y="317" type="line"/>
      <point x="97" y="319" type="line"/>
      <point x="98" y="320" type="line"/>
      <point x="99" y="322" type="line"/>
      <point x="100" y="324" type="line"/>
      <point x="100" y="326" type="line"/>
      <point x="101" y="328" type="line"/>
      <point x="102" y="330" type="line"/>
      <point x="103" y="331" type="line"/>
      <point x="103" y="333" type="line"/>
      <point x="104" y="335" type="line"/>
      <point x="104" y="337" type="line"/>
      <point x="105" y="339" type="line"/>
      <point x="106" y="341" type="line"/>
      <point x="107" y="342" type="line"/>
      <point x="107" y="345" type="line"/>
      <point x="108" y="346" type="line"/>
      <point x="109" y="348" type="line"/>
      <point x="109" y="350" type="line"/>
      <point x="110" y="352" type="line"/>
      <point x="111" y="354" type="line"/>
      <point x="112" y="356" type="line"/>
      <point x="112" y="357" type="line"/>
      <point x="113" y="360" type="line"/>
      <point x="114" y="361" type="line"/>
      <point x="115" y="363" type="line"/>
      <point x="115" y="365" type="line"/>
      <point x="116" y="367" type="line"/>
      <point x="117" y="369" type="line"/>
      <point x="117" y="371" type="line"/>
      <point x="118" y="372" type="line"/>
      <point x="119" y="374" type="line"/>
      <point x="120" y="376" type="line"/>
      <point x="120" y="378" type="line"/>
      <point x="121" y="380" type="line"/>
      <point x="121" y="382" type="line"/>
      <point x="122" y="383" type="line"/>
      <point x="123" y="385" type="line"/>
      <point x="124" y="387" type="line"/>
      <point x="124" y="389" type="line"/>
      <point x="125" y="391" type="line"/>
      <point x="126" y="393" type="line"/>
      <point x="126" y="395" type="line"/>
      <point x="127" y="396" type="line"/>
      <point x="128" y="398" type="line"/>
      <point x="129" y="400" type="line"/>
      <point x="129" y="402" type="line"/>
      <point x="130" y="404" type="line"/>
      <point x="131" y="406" type="line"/>
      <point x="132" y="407" type="line"/>
      <point x="132" y="409" type="line"/>
      <point x="132" y="412" type="line"/>
      <point x="132" y="413" type="line"/>
      <point x="131" y="415" type="line"/>
      <point x="130" y="417" type="line"/>
      <point x="129" y="419" type="line"/>
      <point x="129" y="421" type="line"/>
      <point x="128" y="423" type="line"/>
      <point x="127" y="425" type="line"/>
      <point x="126" y="426" type="line"/>
      <point x="126" y="428" type="line"/>
      <point x="125" y="430" type="line"/>
      <point x="125" y="432" type="line"/>
      <point x="124" y="434" type="line"/>
      <point x="123" y="436" type="line"/>
      <point x="122" y="437" type="line"/>
      <point x="122" y="439" type="line"/>
      <point x="121" y="441" type="line"/>
      <point x="121" y="443" type="line"/>
      <point x="120" y="445" type="line"/>
      <point x="119" y="447" type="line"/>
      <point x="118" y="448" type="line"/>
      <point x="118" y="451" type="line"/>
      <point x="117" y="452" type="line"/>
      <point x="116" y="454" type="line"/>
      <point x="115" y="456" type="line"/>
      <point x="115" y="458" type="line"/>
      <point x="114" y="460" type="line"/>
      <point x="113" y="462" type="line"/>
      <point x="112" y="463" type="line"/>
      <point x="112" y="466" type="line"/>
      <point x="111" y="467" type="line"/>
      <point x="110" y="469" type="line"/>
      <point x="109" y="471" type="line"/>
      <point x="109" y="473" type="line"/>
      <point x="108" y="475" type="line"/>
      <point x="108" y="477" type="line"/>
      <point x="107" y="478" type="line"/>
      <point x="106" y="480" type="line"/>
      <point x="105" y="482" type="line"/>
      <point x="105" y="484" type="line"/>
      <point x="104" y="486" type="line"/>
      <point x="103" y="488" type="line"/>
      <point x="103" y="489" type="line"/>
      <point x="102" y="491" type="line"/>
      <point x="101" y="493" type="line"/>
      <point x="100" y="495" type="line"/>
      <point x="100" y="497" type="line"/>
      <point x="99" y="499" type="line"/>
      <point x="98" y="501" type="line"/>
      <point x="97" y="502" type="line"/>
      <point x="97" y="504" type="line"/>
      <point x="96" y="506" type="line"/>
      <point x="95" y="508" type="line"/>
      <point x="95" y="510" type="line"/>
      <point x="94" y="512" type="line"/>
      <point x="93" y="513" type="line"/>
      <point x="92" y="515" type="line"/>
      <point x="92" y="517" type="line"/>
      <point x="91" y="519" type="line"/>
      <point x="91" y="521" type="line"/>
      <point x="90" y="523" type="line"/>
      <point x="89" y="525" type="line"/>
      <point x="88" y="526" type="line"/>
      <point x="88" y="528" type="line"/>
      <point x="87" y="530" type="line"/>
      <point x="86" y="532" type="line"/>
      <point x="85" y="534" type="line"/>
      <point x="85" y="536" type="line"/>
      <point x="84" y="537" type="line"/>
      <point x="83" y="539" type="line"/>
      <point x="82" y="541" type="line"/>
      <point x="82" y="543" type="line"/>
      <point x="81" y="545" type="line"/>
      <point x="80" y="547" type="line"/>
      <point x="79" y="548" type="line"/>
      <point x="79" y="550" type="line"/>
      <point x="78" y="552" type="line"/>
      <point x="78" y="554" type="line"/>
      <point x="77" y="556" type="line"/>
      <point x="76" y="558" type="line"/>
      <point x="75" y="560" type="line"/>
      <point x="74" y="561" type="line"/>
      <point x="74" y="563" type="line"/>
      <point x="74" y="566" type="line"/>
      <point x="73" y="567" type="line"/>
      <point x="72" y="569" type="line"/>
      <point x="71" y="571" type="line"/>
      <point x="70" y="572" type="line"/>
      <point x="70" y="575" type="line"/>
      <point x="69" y="577" type="line"/>
      <point x="68" y="578" type="line"/>
      <point x="68" y="580" type="line"/>
      <point x="67" y="582" type="line"/>
      <point x="68" y="583" type="line"/>
      <point x="71" y="583" type="line"/>
      <point x="73" y="583" type="line"/>
      <point x="76" y="583" type="line"/>
      <point x="78" y="583" type="line"/>
      <point x="81" y="583" type="line"/>
      <point x="83" y="583" type="line"/>
      <point x="86" y="583" type="line"/>
      <point x="88" y="583" type="line"/>
      <point x="91" y="583" type="line"/>
      <point x="94" y="583" type="line"/>
      <point x="96" y="583" type="line"/>
      <point x="99" y="583" type="line"/>
      <point x="101" y="583" type="line"/>
      <point x="104" y="583" type="line"/>
      <point x="106" y="583" type="line"/>
      <point x="109" y="583" type="line"/>
      <point x="112" y="583" type="line"/>
      <point x="113" y="582" type="line"/>
      <point x="114" y="580" type="line"/>
      <point x="114" y="578" type="line"/>
      <point x="115" y="576" type="line"/>
      <point x="115" y="574" type="line"/>
      <point x="116" y="572" type="line"/>
      <point x="117" y="571" type="line"/>
      <point x="118" y="569" type="line"/>
      <point x="118" y="567" type="line"/>
      <point x="119" y="565" type="line"/>
      <point x="120" y="563" type="line"/>
      <point x="121" y="561" type="line"/>
      <point x="121" y="560" type="line"/>
      <point x="122" y="558" type="line"/>
      <point x="123" y="556" type="line"/>
      <point x="124" y="554" type="line"/>
      <point x="124" y="552" type="line"/>
      <point x="125" y="550" type="line"/>
      <point x="126" y="548" type="line"/>
      <point x="126" y="547" type="line"/>
      <point x="127" y="545" type="line"/>
      <point x="128" y="543" type="line"/>
      <point x="128" y="541" type="line"/>
      <point x="129" y="539" type="line"/>
      <point x="130" y="537" type="line"/>
      <point x="131" y="536" type="line"/>
      <point x="131" y="533" type="line"/>
      <point x="132" y="532" type="line"/>
      <point x="132" y="530" type="line"/>
      <point x="133" y="528" type="line"/>
      <point x="134" y="526" type="line"/>
      <point x="135" y="525" type="line"/>
      <point x="135" y="522" type="line"/>
      <point x="136" y="521" type="line"/>
      <point x="137" y="519" type="line"/>
      <point x="138" y="517" type="line"/>
      <point x="138" y="515" type="line"/>
      <point x="139" y="513" type="line"/>
      <point x="140" y="511" type="line"/>
      <point x="141" y="510" type="line"/>
      <point x="141" y="507" type="line"/>
      <point x="142" y="506" type="line"/>
      <point x="143" y="504" type="line"/>
      <point x="144" y="502" type="line"/>
      <point x="144" y="500" type="line"/>
      <point x="145" y="498" type="line"/>
      <point x="145" y="496" type="line"/>
      <point x="146" y="495" type="line"/>
      <point x="147" y="493" type="line"/>
      <point x="148" y="491" type="line"/>
      <point x="148" y="489" type="line"/>
      <point x="149" y="487" type="line"/>
      <point x="150" y="485" type="line"/>
      <point x="150" y="483" type="line"/>
      <point x="151" y="482" type="line"/>
      <point x="152" y="480" type="line"/>
      <point x="153" y="478" type="line"/>
      <point x="153" y="476" type="line"/>
      <point x="154" y="474" type="line"/>
      <point x="155" y="472" type="line"/>
      <point x="156" y="471" type="line"/>
      <point x="156" y="469" type="line"/>
      <point x="157" y="467" type="line"/>
      <point x="158" y="465" type="line"/>
      <point x="158" y="463" type="line"/>
      <point x="159" y="461" type="line"/>
      <point x="160" y="460" type="line"/>
      <point x="161" y="458" type="line"/>
      <point x="161" y="456" type="line"/>
      <point x="162" y="454" type="line"/>
      <point x="162" y="452" type="line"/>
      <point x="163" y="450" type="line"/>
      <point x="164" y="448" type="line"/>
      <point x="165" y="447" type="line"/>
      <point x="166" y="445" type="line"/>
      <point x="166" y="443" type="line"/>
      <point x="167" y="441" type="line"/>
      <point x="168" y="439" type="line"/>
      <point x="168" y="437" type="line"/>
      <point x="169" y="436" type="line"/>
      <point x="170" y="434" type="line"/>
      <point x="171" y="432" type="line"/>
      <point x="171" y="430" type="line"/>
      <point x="172" y="428" type="line"/>
      <point x="173" y="426" type="line"/>
      <point x="174" y="425" type="line"/>
      <point x="174" y="423" type="line"/>
      <point x="175" y="421" type="line"/>
      <point x="175" y="419" type="line"/>
      <point x="176" y="417" type="line"/>
      <point x="177" y="415" type="line"/>
      <point x="178" y="413" type="line"/>
      <point x="179" y="412" type="line"/>
      <point x="178" y="410" type="line"/>
      <point x="178" y="407" type="line"/>
      <point x="177" y="406" type="line"/>
      <point x="176" y="404" type="line"/>
      <point x="175" y="402" type="line"/>
      <point x="174" y="401" type="line"/>
      <point x="174" y="398" type="line"/>
      <point x="174" y="396" type="line"/>
      <point x="173" y="395" type="line"/>
      <point x="172" y="393" type="line"/>
      <point x="171" y="391" type="line"/>
      <point x="170" y="389" type="line"/>
      <point x="170" y="387" type="line"/>
      <point x="169" y="385" type="line"/>
      <point x="168" y="383" type="line"/>
      <point x="168" y="382" type="line"/>
      <point x="167" y="380" type="line"/>
      <point x="166" y="378" type="line"/>
      <point x="165" y="376" type="line"/>
      <point x="165" y="374" type="line"/>
      <point x="164" y="372" type="line"/>
      <point x="163" y="371" type="line"/>
      <point x="162" y="369" type="line"/>
      <point x="162" y="367" type="line"/>
      <point x="161" y="365" type="line"/>
      <point x="161" y="363" type="line"/>
      <point x="160" y="361" type="line"/>
      <point x="159" y="360" type="line"/>
      <point x="158" y="358" type="line"/>
      <point x="157" y="356" type="line"/>
      <point x="157" y="354" type="line"/>
      <point x="156" y="352" type="line"/>
      <point x="156" y="350" type="line"/>
      <point x="155" y="348" type="line"/>
      <point x="154" y="347" type="line"/>
      <point x="153" y="345" type="line"/>
      <point x="153" y="343" type="line"/>
      <point x="152" y="341" type="line"/>
      <point x="151" y="339" type="line"/>
      <point x="150" y="337" type="line"/>
      <point x="150" y="336" type="line"/>
      <point x="149" y="334" type="line"/>
      <point x="148" y="332" type="line"/>
      <point x="147" y="330" type="line"/>
      <point x="147" y="328" type="line"/>
      <point x="146" y="326" type="line"/>
      <point x="145" y="325" type="line"/>
      <point x="144" y="323" type="line"/>
      <point x="144" y="321" type="line"/>
      <point x="143" y="319" type="line"/>
      <point x="143" y="317" type="line"/>
      <point x="142" y="315" type="line"/>
      <point x="141" y="313" type="line"/>
      <point x="140" y="312" type="line"/>
      <point x="140" y="310" type="line"/>
      <point x="139" y="308" type="line"/>
      <point x="138" y="306" type="line"/>
      <point x="138" y="304" type="line"/>
      <point x="137" y="302" type="line"/>
      <point x="136" y="301" type="line"/>
      <point x="135" y="298" type="line"/>
      <point x="135" y="297" type="line"/>
      <point x="134" y="295" type="line"/>
      <point x="133" y="293" type="line"/>
      <point x="132" y="291" type="line"/>
      <point x="132" y="289" type="line"/>
      <point x="131" y="287" type="line"/>
      <point x="130" y="286" type="line"/>
      <point x="130" y="283" type="line"/>
      <point x="129" y="282" type="line"/>
      <point x="128" y="280" type="line"/>
      <point x="127" y="278" type="line"/>
      <point x="127" y="276" type="line"/>
      <point x="126" y="275" type="line"/>
      <point x="126" y="272" type="line"/>
      <point x="125" y="271" type="line"/>
      <point x="124" y="269" type="line"/>
      <point x="123" y="267" type="line"/>
      <point x="123" y="265" type="line"/>
      <point x="122" y="263" type="line"/>
      <point x="121" y="261" type="line"/>
      <point x="121" y="260" type="line"/>
      <point x="120" y="258" type="line"/>
      <point x="119" y="256" type="line"/>
      <point x="118" y="254" type="line"/>
      <point x="118" y="252" type="line"/>
      <point x="117" y="250" type="line"/>
      <point x="116" y="248" type="line"/>
      <point x="115" y="247" type="line"/>
      <point x="115" y="245" type="line"/>
      <point x="114" y="243" type="line"/>
      <point x="113" y="241" type="line"/>
      <point x="113" y="239" type="line"/>
      <point x="112" y="237" type="line"/>
      <point x="111" y="236" type="line"/>
      <point x="110" y="234" type="line"/>
      <point x="109" y="232" type="line"/>
      <point x="109" y="230" type="line"/>
      <point x="109" y="228" type="line"/>
      <point x="108" y="226" type="line"/>
      <point x="107" y="225" type="line"/>
      <point x="106" y="223" type="line"/>
      <point x="105" y="221" type="line"/>
      <point x="105" y="219" type="line"/>
      <point x="104" y="217" type="line"/>
      <point x="103" y="215" type="line"/>
      <point x="103" y="213" type="line"/>
      <point x="102" y="212" type="line"/>
      <point x="101" y="210" type="line"/>
      <point x="100" y="208" type="line"/>
      <point x="100" y="206" type="line"/>
      <point x="99" y="204" type="line"/>
      <point x="98" y="202" type="line"/>
      <point x="97" y="201" type="line"/>
      <point x="97" y="199" type="line"/>
      <point x="96" y="197" type="line"/>
      <point x="96" y="195" type="line"/>
    </contour>
  </outline>
</glyph>
<glyph name="question" format="2">
  <advance width="425"/>
  <unicode hex="003F"/>
  <outline>
    <contour>
      <point x="255" y="192" type="line"/>
      <point x="212" y="192" type="line"/>
      <point x="212" y="430" type="line"/>
      <point x="226" y="430" type="line"/>
      <point x="243" y="434" type="line"/>
      <point x="258" y="439" type="line"/>
      <point x="268" y="444" type="line"/>
      <point x="284" y="455" type="line"/>
      <point x="301" y="472" type="line"/>
      <point x="312" y="488" type="line"/>
      <point x="319" y="503" type="line"/>
      <point x="324" y="520" type="line"/>
      <point x="326" y="530" type="line"/>
      <point x="326" y="557" type="line"/>
      <point x="324" y="568" type="line"/>
      <point x="319" y="585" type="line"/>
      <point x="309" y="603" type="line"/>
      <point x="301" y="615" type="line"/>
      <point x="284" y="632" type="line"/>
      <point x="268" y="643" type="line"/>
      <point x="253" y="650" type="line"/>
      <point x="243" y="653" type="line"/>
      <point x="226" y="657" type="line"/>
      <point x="199" y="657" type="line"/>
      <point x="183" y="653" type="line"/>
      <point x="166" y="647" type="line"/>
      <point x="147" y="635" type="line"/>
      <point x="138" y="628" type="line"/>
      <point x="122" y="610" type="line"/>
      <point x="115" y="600" type="line"/>
      <point x="106" y="580" type="line"/>
      <point x="100" y="558" type="line"/>
      <point x="99" y="539" type="line"/>
      <point x="98" y="538" type="line"/>
      <point x="56" y="538" type="line"/>
      <point x="55" y="539" type="line"/>
      <point x="57" y="567" type="line"/>
      <point x="65" y="595" type="line"/>
      <point x="81" y="627" type="line"/>
      <point x="97" y="649" type="line"/>
      <point x="116" y="666" type="line"/>
      <point x="131" y="677" type="line"/>
      <point x="143" y="684" type="line"/>
      <point x="168" y="694" type="line"/>
      <point x="197" y="700" type="line"/>
      <point x="229" y="700" type="line"/>
      <point x="245" y="698" type="line"/>
      <point x="261" y="694" type="line"/>
      <point x="288" y="682" type="line"/>
      <point x="313" y="665" type="line"/>
      <point x="333" y="644" type="line"/>
      <point x="350" y="620" type="line"/>
      <point x="358" y="603" type="line"/>
      <point x="364" y="586" type="line"/>
      <point x="369" y="560" type="line"/>
      <point x="369" y="548" type="line"/>
      <point x="370" y="547" type="line"/>
      <point x="369" y="527" type="line"/>
      <point x="364" y="501" type="line"/>
      <point x="356" y="479" type="line"/>
      <point x="342" y="454" type="line"/>
      <point x="324" y="432" type="line"/>
      <point x="302" y="414" type="line"/>
      <point x="290" y="406" type="line"/>
      <point x="275" y="399" type="line"/>
      <point x="255" y="392" type="line"/>
    </contour>
    <contour>
      <point x="255" y="0" type="line"/>
      <point x="252" y="0" type="line"/>
      <point x="250" y="0" type="line"/>
      <point x="247" y="0" type="line"/>
      <point x="245" y="0" type="line"/>
      <point x="242" y="0" type="line"/>
      <point x="240" y="0" type="line"/>
      <point x="237" y="0" type="line"/>
      <point x="234" y="0" type="line"/>
      <point x="232" y="0" type="line"/>
      <point x="229" y="0" type="line"/>
      <point x="227" y="0" type="line"/>
      <point x="224" y="0" type="line"/>
      <point x="222" y="0" type="line"/>
      <point x="219" y="0" type="line"/>
      <point x="217" y="0" type="line"/>
      <point x="214" y="0" type="line"/>
      <point x="212" y="0" type="line"/>
      <point x="212" y="3" type="line"/>
      <point x="212" y="5" type="line"/>
      <point x="212" y="8" type="line"/>
      <point x="212" y="10" type="line"/>
      <point x="212" y="13" type="line"/>
      <point x="212" y="15" type="line"/>
      <point x="212" y="18" type="line"/>
      <point x="212" y="21" type="line"/>
      <point x="212" y="23" type="line"/>
      <point x="212" y="26" type="line"/>
      <point x="212" y="28" type="line"/>
      <point x="212" y="31" type="line"/>
      <point x="212" y="33" type="line"/>
      <point x="212" y="36" type="line"/>
      <point x="212" y="38" type="line"/>
      <point x="212" y="41" type="line"/>
      <point x="212" y="43" type="line"/>
      <point x="215" y="43" type="line"/>
      <point x="217" y="43" type="line"/>
      <point x="220" y="43" type="line"/>
      <point x="223" y="43" type="line"/>
      <point x="225" y="43" type="line"/>
      <point x="228" y="43" type="line"/>
      <point x="230" y="43" type="line"/>
      <point x="233" y="43" type="line"/>
      <point x="235" y="43" type="line"/>
      <point x="238" y="43" type="line"/>
      <point x="240" y="43" type="line"/>
      <point x="243" y="43" type="line"/>
      <point x="246" y="43" type="line"/>
      <point x="248" y="43" type="line"/>
      <point x="251" y="43" type="line"/>
      <point x="253" y="43" type="line"/>
      <point x="255" y="43" type="line"/>
      <point x="255" y="40" type="line"/>
      <point x="255" y="38" type="line"/>
      <point x="255" y="35" type="line"/>
      <point x="255" y="32" type="line"/>
      <point x="255" y="30" type="line"/>
      <point x="255" y="27" type="line"/>
      <point x="255" y="25" type="line"/>
      <point x="255" y="22" type="line"/>
      <point x="255" y="20" type="line"/>
      <point x="255" y="17" type="line"/>
      <point x="255" y="15" type="line"/>
      <point x="255" y="12" type="line"/>
      <point x="255" y="9" type="line"/>
      <point x="255" y="7" type="line"/>
      <point x="255" y="4" type="line"/>
      <point x="255" y="2" type="line"/>
    </contour>
  </outline>
</glyph>
<glyph name="uni0040" format="2">
  <advance width="740"/>
  <unicode hex="0040"/>
  <outline>
    <contour>
      <point x="380" y="153" type="line"/>
      <point x="360" y="149" type="line"/>
      <point x="299" y="148" type="line"/>
      <point x="280" y="150" type="line"/>
      <point x="268" y="153" type="line"/>
      <point x="256" y="157" type="line"/>
      <point x="240" y="166" type="line"/>
      <point x="227" y="176" type="line"/>
      <point x="216" y="187" type="line"/>
      <point x="207" y="198" type="line"/>
      <point x="199" y="213" type="line"/>
      <point x="192" y="231" type="line"/>
      <point x="189" y="245" type="line"/>
      <point x="188" y="260" type="line"/>
      <point x="189" y="388" type="line"/>
      <point x="193" y="409" type="line"/>
      <point x="197" y="420" type="line"/>
      <point x="205" y="435" type="line"/>
      <point x="216" y="449" type="line"/>
      <point x="225" y="458" type="line"/>
      <point x="238" y="469" type="line"/>
      <point x="253" y="477" type="line"/>
      <point x="268" y="483" type="line"/>
      <point x="282" y="487" type="line"/>
      <point x="299" y="488" type="line"/>
      <point x="346" y="488" type="line"/>
      <point x="364" y="487" type="line"/>
      <point x="378" y="483" type="line"/>
      <point x="390" y="479" type="line"/>
      <point x="412" y="466" type="line"/>
      <point x="442" y="466" type="line"/>
      <point x="447" y="464" type="line"/>
      <point x="453" y="459" type="line"/>
      <point x="457" y="452" type="line"/>
      <point x="458" y="446" type="line"/>
      <point x="458" y="232" type="line"/>
      <point x="596" y="232" type="line"/>
      <point x="602" y="231" type="line"/>
      <point x="607" y="229" type="line"/>
      <point x="613" y="223" type="line"/>
      <point x="616" y="216" type="line"/>
      <point x="616" y="177" type="line"/>
      <point x="653" y="156" type="line"/>
      <point x="659" y="151" type="line"/>
      <point x="661" y="146" type="line"/>
      <point x="662" y="140" type="line"/>
      <point x="660" y="132" type="line"/>
      <point x="645" y="104" type="line"/>
      <point x="629" y="83" type="line"/>
      <point x="610" y="63" type="line"/>
      <point x="586" y="45" type="line"/>
      <point x="560" y="30" type="line"/>
      <point x="532" y="19" type="line"/>
      <point x="503" y="13" type="line"/>
      <point x="472" y="10" type="line"/>
      <point x="229" y="10" type="line"/>
      <point x="200" y="12" type="line"/>
      <point x="172" y="18" type="line"/>
      <point x="146" y="28" type="line"/>
      <point x="119" y="42" type="line"/>
      <point x="91" y="62" type="line"/>
      <point x="72" y="81" type="line"/>
      <point x="54" y="105" type="line"/>
      <point x="39" y="134" type="line"/>
      <point x="27" y="164" type="line"/>
      <point x="22" y="191" type="line"/>
      <point x="20" y="218" type="line"/>
      <point x="20" y="460" type="line"/>
      <point x="22" y="489" type="line"/>
      <point x="29" y="521" type="line"/>
      <point x="38" y="545" type="line"/>
      <point x="52" y="571" type="line"/>
      <point x="71" y="598" type="line"/>
      <point x="92" y="619" type="line"/>
      <point x="116" y="637" type="line"/>
      <point x="140" y="650" type="line"/>
      <point x="171" y="661" type="line"/>
      <point x="198" y="668" type="line"/>
      <point x="229" y="670" type="line"/>
      <point x="470" y="670" type="line"/>
      <point x="499" y="668" type="line"/>
      <point x="531" y="661" type="line"/>
      <point x="555" y="652" type="line"/>
      <point x="581" y="638" type="line"/>
      <point x="608" y="619" type="line"/>
      <point x="629" y="598" type="line"/>
      <point x="647" y="574" type="line"/>
      <point x="660" y="550" type="line"/>
      <point x="673" y="516" type="line"/>
      <point x="678" y="487" type="line"/>
      <point x="680" y="460" type="line"/>
      <point x="680" y="298" type="line"/>
      <point x="678" y="291" type="line"/>
      <point x="673" y="285" type="line"/>
      <point x="666" y="281" type="line"/>
      <point x="660" y="280" type="line"/>
      <point x="612" y="280" type="line"/>
      <point x="603" y="285" type="line"/>
      <point x="598" y="292" type="line"/>
      <point x="596" y="300" type="line"/>
      <point x="596" y="458" type="line"/>
      <point x="594" y="478" type="line"/>
      <point x="591" y="496" type="line"/>
      <point x="585" y="513" type="line"/>
      <point x="576" y="528" type="line"/>
      <point x="565" y="543" type="line"/>
      <point x="553" y="555" type="line"/>
      <point x="538" y="566" type="line"/>
      <point x="523" y="575" type="line"/>
      <point x="506" y="581" type="line"/>
      <point x="488" y="584" type="line"/>
      <point x="468" y="586" type="line"/>
      <point x="232" y="586" type="line"/>
      <point x="212" y="584" type="line"/>
      <point x="194" y="581" type="line"/>
      <point x="177" y="575" type="line"/>
      <point x="162" y="566" type="line"/>
      <point x="147" y="555" type="line"/>
      <point x="135" y="543" type="line"/>
      <point x="124" y="528" type="line"/>
      <point x="115" y="513" type="line"/>
      <point x="109" y="496" type="line"/>
      <point x="106" y="478" type="line"/>
      <point x="104" y="458" type="line"/>
      <point x="104" y="222" type="line"/>
      <point x="106" y="202" type="line"/>
      <point x="109" y="184" type="line"/>
      <point x="115" y="167" type="line"/>
      <point x="124" y="152" type="line"/>
      <point x="148" y="125" type="line"/>
      <point x="162" y="114" type="line"/>
      <point x="177" y="105" type="line"/>
      <point x="194" y="99" type="line"/>
      <point x="212" y="96" type="line"/>
      <point x="232" y="94" type="line"/>
      <point x="468" y="94" type="line"/>
      <point x="488" y="96" type="line"/>
      <point x="506" y="99" type="line"/>
      <point x="523" y="105" type="line"/>
      <point x="538" y="114" type="line"/>
      <point x="553" y="125" type="line"/>
      <point x="565" y="137" type="line"/>
      <point x="573" y="148" type="line"/>
      <point x="394" y="148" type="line"/>
      <point x="386" y="150" type="line"/>
    </contour>
    <contour>
      <point x="373" y="384" type="line"/>
      <point x="369" y="391" type="line"/>
      <point x="361" y="399" type="line"/>
      <point x="354" y="403" type="line"/>
      <point x="344" y="404" type="line"/>
      <point x="295" y="403" type="line"/>
      <point x="288" y="401" type="line"/>
      <point x="282" y="397" type="line"/>
      <point x="275" y="388" type="line"/>
      <point x="273" y="381" type="line"/>
      <point x="272" y="262" type="line"/>
      <point x="275" y="248" type="line"/>
      <point x="279" y="242" type="line"/>
      <point x="288" y="235" type="line"/>
      <point x="295" y="233" type="line"/>
      <point x="344" y="232" type="line"/>
      <point x="350" y="233" type="line"/>
      <point x="358" y="235" type="line"/>
      <point x="360" y="236" type="line"/>
      <point x="367" y="242" type="line"/>
      <point x="371" y="248" type="line"/>
      <point x="373" y="255" type="line"/>
      <point x="374" y="374" type="line"/>
    </contour>
  </outline>
</glyph>
<glyph name="B" format="2">
  <advance width="583"/>
  <unicode hex="0042"/>
  <outline>
    <contour>
      <point x="117" y="0" type="line"/>
      <point x="60" y="1" type="line"/>
      <point x="60" y="700" type="line"/>
      <point x="226" y="700" type="line"/>
      <point x="242" y="699" type="line"/>
      <point x="272" y="690" type="line"/>
      <point x="285" y="683" type="line"/>
      <point x="303" y="671" type="line"/>
      <point x="326" y="648" type="line"/>
      <point x="336" y="633" type="line"/>
      <point x="344" y="617" type="line"/>
      <point x="350" y="601" type="line"/>
      <point x="354" y="581" type="line"/>
      <point x="354" y="571" type="line"/>
      <point x="355" y="570" type="line"/>
      <point x="354" y="546" type="line"/>
      <point x="350" y="526" type="line"/>
      <point x="346" y="515" type="line"/>
      <point x="337" y="496" type="line"/>
      <point x="332" y="487" type="line"/>
      <point x="358" y="491" type="line"/>
      <point x="385" y="491" type="line"/>
      <point x="413" y="487" type="line"/>
      <point x="445" y="477" type="line"/>
      <point x="479" y="460" type="line"/>
      <point x="502" y="443" type="line"/>
      <point x="524" y="421" type="line"/>
      <point x="539" y="401" type="line"/>
      <point x="548" y="386" type="line"/>
      <point x="557" y="368" type="line"/>
      <point x="565" y="345" type="line"/>
      <point x="568" y="329" type="line"/>
      <point x="571" y="307" type="line"/>
      <point x="571" y="270" type="line"/>
      <point x="567" y="239" type="line"/>
      <point x="560" y="207" type="line"/>
      <point x="549" y="177" type="line"/>
      <point x="533" y="146" type="line"/>
      <point x="517" y="121" type="line"/>
      <point x="501" y="101" type="line"/>
      <point x="473" y="74" type="line"/>
      <point x="447" y="53" type="line"/>
      <point x="420" y="37" type="line"/>
      <point x="397" y="26" type="line"/>
      <point x="368" y="15" type="line"/>
      <point x="323" y="5" type="line"/>
      <point x="304" y="3" type="line"/>
      <point x="118" y="1" type="line"/>
    </contour>
    <contour>
      <point x="107" y="444" type="line"/>
      <point x="190" y="462" type="line"/>
      <point x="252" y="477" type="line"/>
      <point x="272" y="488" type="line"/>
      <point x="291" y="506" type="line"/>
      <point x="297" y="516" type="line"/>
      <point x="307" y="538" type="line"/>
      <point x="310" y="553" type="line"/>
      <point x="310" y="574" type="line"/>
      <point x="306" y="592" type="line"/>
      <point x="298" y="609" type="line"/>
      <point x="290" y="622" type="line"/>
      <point x="276" y="635" type="line"/>
      <point x="266" y="643" type="line"/>
      <point x="252" y="650" type="line"/>
      <point x="229" y="656" type="line"/>
      <point x="104" y="655" type="line"/>
      <point x="104" y="444" type="line"/>
    </contour>
    <contour>
      <point x="154" y="46" type="line"/>
      <point x="293" y="47" type="line"/>
      <point x="294" y="48" type="line"/>
      <point x="316" y="49" type="line"/>
      <point x="350" y="56" type="line"/>
      <point x="373" y="64" type="line"/>
      <point x="407" y="80" type="line"/>
      <point x="440" y="104" type="line"/>
      <point x="464" y="127" type="line"/>
      <point x="479" y="144" type="line"/>
      <point x="491" y="163" type="line"/>
      <point x="509" y="197" type="line"/>
      <point x="517" y="218" type="line"/>
      <point x="523" y="241" type="line"/>
      <point x="527" y="280" type="line"/>
      <point x="527" y="298" type="line"/>
      <point x="525" y="322" type="line"/>
      <point x="516" y="350" type="line"/>
      <point x="510" y="363" type="line"/>
      <point x="499" y="380" type="line"/>
      <point x="488" y="395" type="line"/>
      <point x="476" y="406" type="line"/>
      <point x="450" y="426" type="line"/>
      <point x="420" y="439" type="line"/>
      <point x="388" y="446" type="line"/>
      <point x="355" y="446" type="line"/>
      <point x="205" y="417" type="line"/>
      <point x="200" y="417" type="line"/>
      <point x="175" y="411" type="line"/>
      <point x="170" y="411" type="line"/>
      <point x="150" y="406" type="line"/>
      <point x="145" y="406" type="line"/>
      <point x="105" y="397" type="line"/>
      <point x="103" y="396" type="line"/>
      <point x="103" y="46" type="line"/>
    </contour>
  </outline>
</glyph>
<glyph name="C" format="2">
  <advance width="502"/>
  <unicode hex="0043"/>
  <outline>
    <contour>
      <point x="201" y="6" type="line"/>
      <point x="175" y="6" type="line"/>
      <point x="153" y="9" type="line"/>
      <point x="120" y="20" type="line"/>
      <point x="104" y="29" type="line"/>
      <point x="82" y="44" type="line"/>
      <point x="65" y="61" type="line"/>
      <point x="54" y="75" type="line"/>
      <point x="44" y="92" type="line"/>
      <point x="33" y="113" type="line"/>
      <point x="24" y="136" type="line"/>
      <point x="17" y="163" type="line"/>
      <point x="12" y="205" type="line"/>
      <point x="12" y="256" type="line"/>
      <point x="12" y="257" type="line"/>
      <point x="13" y="277" type="line"/>
      <point x="21" y="323" type="line"/>
      <point x="29" y="353" type="line"/>
      <point x="41" y="388" type="line"/>
      <point x="57" y="428" type="line"/>
      <point x="74" y="461" type="line"/>
      <point x="97" y="501" type="line"/>
      <point x="138" y="559" type="line"/>
      <point x="183" y="610" type="line"/>
      <point x="234" y="660" type="line"/>
      <point x="261" y="682" type="line"/>
      <point x="284" y="700" type="line"/>
      <point x="311" y="665" type="line"/>
      <point x="250" y="614" type="line"/>
      <point x="206" y="570" type="line"/>
      <point x="169" y="526" type="line"/>
      <point x="150" y="500" type="line"/>
      <point x="120" y="452" type="line"/>
      <point x="96" y="407" type="line"/>
      <point x="83" y="373" type="line"/>
      <point x="72" y="341" type="line"/>
      <point x="63" y="306" type="line"/>
      <point x="58" y="277" type="line"/>
      <point x="56" y="246" type="line"/>
      <point x="55" y="245" type="line"/>
      <point x="55" y="216" type="line"/>
      <point x="58" y="186" type="line"/>
      <point x="65" y="155" type="line"/>
      <point x="74" y="131" type="line"/>
      <point x="88" y="105" type="line"/>
      <point x="96" y="94" type="line"/>
      <point x="114" y="76" type="line"/>
      <point x="130" y="65" type="line"/>
      <point x="156" y="54" type="line"/>
      <point x="172" y="51" type="line"/>
      <point x="190" y="50" type="line"/>
      <point x="217" y="53" type="line"/>
      <point x="251" y="63" type="line"/>
      <point x="271" y="72" type="line"/>
      <point x="302" y="88" type="line"/>
      <point x="332" y="109" type="line"/>
      <point x="355" y="127" type="line"/>
      <point x="381" y="151" type="line"/>
      <point x="425" y="195" type="line"/>
      <point x="456" y="232" type="line"/>
      <point x="490" y="203" type="line"/>
      <point x="462" y="170" type="line"/>
      <point x="422" y="128" type="line"/>
      <point x="381" y="91" type="line"/>
      <point x="348" y="66" type="line"/>
      <point x="313" y="43" type="line"/>
      <point x="273" y="24" type="line"/>
      <point x="233" y="11" type="line"/>
    </contour>
  </outline>
</glyph>
<glyph name="D" format="2">
  <advance width="499"/>
  <unicode hex="0044"/>
  <outline>
    <contour>
      <point x="126" y="0" type="line"/>
      <point x="62" y="1" type="line"/>
      <point x="62" y="700" type="line"/>
      <point x="104" y="700" type="line"/>
      <point x="140" y="677" type="line"/>
      <point x="180" y="649" type="line"/>
      <point x="244" y="599" type="line"/>
      <point x="296" y="554" type="line"/>
      <point x="343" y="508" type="line"/>
      <point x="377" y="470" type="line"/>
      <point x="401" y="441" type="line"/>
      <point x="426" y="405" type="line"/>
      <point x="444" y="375" type="line"/>
      <point x="454" y="355" type="line"/>
      <point x="469" y="321" type="line"/>
      <point x="480" y="286" type="line"/>
      <point x="486" y="252" type="line"/>
      <point x="487" y="223" type="line"/>
      <point x="486" y="222" type="line"/>
      <point x="485" y="201" type="line"/>
      <point x="479" y="175" type="line"/>
      <point x="472" y="156" type="line"/>
      <point x="462" y="136" type="line"/>
      <point x="448" y="115" type="line"/>
      <point x="420" y="86" type="line"/>
      <point x="405" y="75" type="line"/>
      <point x="383" y="60" type="line"/>
      <point x="353" y="44" type="line"/>
      <point x="323" y="33" type="line"/>
      <point x="292" y="23" type="line"/>
      <point x="244" y="12" type="line"/>
      <point x="213" y="7" type="line"/>
      <point x="177" y="3" type="line"/>
      <point x="127" y="1" type="line"/>
    </contour>
    <contour>
      <point x="139" y="46" type="line"/>
      <point x="198" y="50" type="line"/>
      <point x="261" y="61" type="line"/>
      <point x="287" y="68" type="line"/>
      <point x="321" y="79" type="line"/>
      <point x="366" y="102" type="line"/>
      <point x="387" y="117" type="line"/>
      <point x="407" y="136" type="line"/>
      <point x="415" y="146" type="line"/>
      <point x="428" y="167" type="line"/>
      <point x="434" y="180" type="line"/>
      <point x="440" y="202" type="line"/>
      <point x="442" y="216" type="line"/>
      <point x="442" y="244" type="line"/>
      <point x="437" y="274" type="line"/>
      <point x="428" y="303" type="line"/>
      <point x="420" y="323" type="line"/>
      <point x="405" y="354" type="line"/>
      <point x="378" y="396" type="line"/>
      <point x="341" y="444" type="line"/>
      <point x="318" y="470" type="line"/>
      <point x="273" y="515" type="line"/>
      <point x="242" y="543" type="line"/>
      <point x="184" y="590" type="line"/>
      <point x="105" y="647" type="line"/>
      <point x="104" y="46" type="line"/>
    </contour>
  </outline>
</glyph>
